<svg width="180" height="150" viewBox="0 0 180 150" fill="none" xmlns="http://www.w3.org/2000/svg">
<path d="M41.2799 113.886C41.6396 113.943 43.6086 114.038 43.6086 113.697C43.6086 113.498 43.2489 113.508 43.2489 113.508C43.2962 111.993 45.2178 111.614 46.5904 112.41C46.9688 112.627 47.3185 112.891 47.6317 113.195C45.6911 113.299 43.1163 114.625 43.2867 116.546C43.3846 117.047 43.5947 117.52 43.9013 117.928C44.2079 118.336 44.603 118.67 45.0569 118.903C45.6243 119.328 46.2706 119.636 46.9581 119.808C47.6456 119.98 48.3605 120.014 49.0611 119.907C50.309 119.589 51.4069 118.846 52.166 117.805C53.8818 117.86 55.5606 117.299 56.8991 116.225C56.9556 116.18 57.0024 116.124 57.0366 116.06C57.0708 115.997 57.0916 115.927 57.0979 115.855C57.0979 115.524 57.0979 115.543 55.2047 113.441C55.1511 113.382 55.0839 113.336 55.0088 113.307C54.9337 113.279 54.8529 113.269 54.7731 113.278C54.6934 113.287 54.617 113.316 54.5504 113.36C54.4839 113.405 54.429 113.466 54.3906 113.536C54.3579 113.577 54.3294 113.622 54.3054 113.669C54.155 113.951 53.912 114.173 53.6172 114.297C53.3223 114.421 52.9937 114.44 52.6867 114.35C51.7401 114.076 50.5189 111.567 48.2944 110.072C46.3538 108.765 43.7506 108.377 41.9141 109.93C41.1237 110.608 40.5618 111.514 40.3049 112.523C40.2027 112.835 40.223 113.173 40.3617 113.47C40.6103 113.711 40.9348 113.858 41.2799 113.886ZM44.8392 117.398C44.5797 117.213 44.3995 116.937 44.3346 116.624C44.2697 116.312 44.3248 115.987 44.4889 115.713C44.9087 115.133 45.4921 114.692 46.1645 114.445C45.6221 115.364 45.1779 116.339 44.8392 117.351V117.398ZM53.7564 115.903C53.9836 115.221 53.7564 115.458 54.135 115.287C54.4219 115.144 54.6814 114.952 54.9018 114.719L55.7632 115.742C55.0498 116.194 54.2611 116.515 53.4345 116.688C53.5292 116.442 53.6806 116.064 53.7564 115.855V115.903ZM50.3296 113.489C51.2289 114.615 51.9767 115.619 53.3493 115.505C53.1535 115.913 52.995 116.337 52.876 116.774C52.185 116.821 52.0903 116.66 51.8158 116.774C51.2762 116.982 50.3864 118.922 48.2281 118.913C48.3624 118.613 48.4487 118.293 48.4837 117.966C49.0944 117.843 49.6661 117.573 50.1497 117.181C50.357 117.001 50.4917 116.752 50.5284 116.48C50.5284 116.149 50.4148 115.723 49.7143 115.164C49.9753 114.612 50.1813 114.035 50.3296 113.441V113.489ZM47.1489 117.067C46.3159 116.622 47.7358 115.836 48.6541 115.865C48.865 115.866 49.0713 115.928 49.2488 116.042C49.4264 116.156 49.5681 116.317 49.6575 116.509C49.531 116.712 49.3643 116.888 49.1676 117.025C48.9709 117.162 48.7482 117.257 48.5134 117.305C48.2785 117.353 48.0364 117.352 47.8018 117.303C47.5671 117.254 47.345 117.158 47.1489 117.02V117.067ZM48.266 111.274C48.9088 111.82 49.4925 112.433 50.0077 113.101C49.7082 113.647 49.4792 114.229 49.3262 114.833C48.9284 114.719 48.5113 114.688 48.101 114.741C47.6906 114.795 47.2957 114.933 46.9407 115.145C45.2084 116.092 45.6154 118.165 48.0198 117.928C47.8785 118.201 47.7735 118.49 47.7074 118.79C46.7475 118.599 45.8499 118.173 45.0948 117.55C45.7658 116.507 46.2883 115.376 46.6472 114.189C47.0152 114.02 47.4133 113.926 47.8181 113.913C48.2229 113.9 48.6262 113.968 49.0043 114.114L49.2031 113.366L48.9949 113.271C48.5499 112.968 48.3512 112.732 47.84 112.324C48.0297 111.979 48.1729 111.61 48.266 111.226V111.274ZM44.5931 109.759C45.7777 109.781 46.9247 110.179 47.8684 110.895C47.6989 111.281 47.5719 111.684 47.4897 112.097C47.036 111.741 46.5007 111.504 45.9322 111.406C45.3637 111.309 44.7798 111.354 44.2333 111.539C44.4331 110.965 44.5541 110.366 44.5931 109.759ZM42.4253 110.497C42.9501 110.089 43.5807 109.839 44.2428 109.778C43.9491 110.414 43.7666 111.096 43.7032 111.794C43.4212 111.964 43.1904 112.206 43.0353 112.496C42.8803 112.786 42.8069 113.113 42.8229 113.441C42.1596 113.478 41.4959 113.378 40.8728 113.148C41.0136 112.097 41.565 111.144 42.4064 110.497H42.4253ZM28.2828 108.917C26.5789 108.178 22.7924 110.365 22.1013 111.539C22.0014 111.798 22.0014 112.084 22.1013 112.343C22.6977 114.606 28.2638 122.595 29.2957 123.835C29.4755 124.063 29.7216 123.75 29.5607 123.485C29.0685 122.671 29.1253 124.309 31.6433 116.158C31.8765 116.067 32.0938 115.939 32.287 115.78C32.3748 115.682 32.4234 115.556 32.4234 115.425C32.4234 115.294 32.3748 115.167 32.287 115.07C32.201 114.963 32.1025 114.868 31.9935 114.786L32.5899 112.58L34.9565 113.886C34.4779 115.083 34.1288 116.327 33.9152 117.597C32.9607 117.941 32.0663 118.433 31.2646 119.055C30.7061 119.67 31.5865 120.806 32.1355 121.488C32.6846 122.169 33.1484 122.633 33.2525 122.737C33.3567 122.841 33.688 122.737 33.6596 122.567C33.5995 122.43 33.5198 122.302 33.4229 122.188C32.91 121.39 32.4696 120.547 32.1071 119.67C32.8429 119.23 33.6196 118.862 34.4263 118.572C34.7198 118.468 35.6286 118.184 35.8747 118.336C37.0891 118.975 38.3559 119.51 39.6612 119.935C39.7139 119.96 39.7744 119.964 39.8295 119.944C39.8845 119.924 39.9295 119.884 39.9546 119.831C39.9797 119.778 39.9829 119.718 39.9633 119.663C39.9438 119.608 39.9032 119.563 39.8505 119.538L38.2128 118.544C38.5615 117.753 38.785 116.913 38.8755 116.054L42.9175 118.241C43.1637 118.383 43.353 117.995 43.1731 117.891C42.9933 117.786 30.7251 109.986 28.2828 108.917ZM26.8439 109.92C27.1742 109.821 27.5265 109.821 27.8568 109.92C28.0745 110.015 28.6046 110.299 29.3241 110.696C29.0814 111.366 28.9162 112.062 28.8318 112.769C28.1976 112.41 27.8189 112.135 27.3172 112.22C27.0438 112.282 26.788 112.405 26.5694 112.58C26.664 111.842 26.7492 111.274 26.8439 109.92ZM23.0574 112.003C24.0392 111.067 25.2302 110.379 26.5315 109.996C26.0263 112.229 25.6721 114.493 25.4713 116.774C24.5168 115.262 23.7115 113.661 23.0669 111.993L23.0574 112.003ZM27.3551 119.964C26.8344 119.102 26.2665 118.146 25.7269 117.209C26.0487 115.855 26.1529 115.231 26.3517 113.953C26.8696 114.851 27.4685 115.7 28.1408 116.49C27.7591 117.617 27.4989 118.781 27.3645 119.964H27.3551ZM29.0117 122.69C28.6709 122.15 28.2354 121.421 27.6675 120.484C28.0268 119.297 28.2647 118.076 28.3774 116.84C28.5857 117.342 30.4411 116.622 30.9428 116.433C30.5736 117.597 29.2862 121.649 29.0211 122.69H29.0117ZM28.7277 116.546C28.141 115.531 27.6224 114.478 27.1752 113.394L27.4687 113.233C27.6012 113.309 30.8387 115.221 31.0753 115.373C30.3375 115.842 29.5542 116.235 28.7372 116.546H28.7277ZM31.5676 114.464C30.8576 113.991 29.892 113.413 29.1537 112.987C29.4063 112.317 29.5717 111.617 29.6459 110.905L32.3343 112.419C32.287 112.779 31.9651 113.517 31.6243 114.464H31.5676ZM37.8342 118.25L36.3764 117.37C35.7286 117.114 35.0079 117.114 34.3601 117.37C34.727 116.263 34.9931 115.126 35.1552 113.972L38.582 115.865C38.2319 116.637 37.999 117.457 37.891 118.298L37.8342 118.25Z" fill="#E678D0"/>
<path d="M179.345 121.62C177.811 107.345 164.596 85.3931 156.701 73.3994C161.11 73.752 165.534 73.8626 169.954 73.7307C171.213 73.7307 174.507 73.5035 175.142 73.3805C175.511 73.3047 175.568 72.9545 175.009 72.9355C174.451 72.9166 170.475 72.7273 169.935 72.7178H160.308C158.831 72.7746 156.522 72.9072 156.389 72.9072C153.549 68.5811 151.571 65.8737 151.552 65.8643C151.53 65.8422 151.504 65.8251 151.475 65.814C151.446 65.8029 151.415 65.7981 151.384 65.7999C151.353 65.8017 151.323 65.8101 151.296 65.8246C151.268 65.839 151.244 65.8591 151.225 65.8836C151.206 65.908 151.192 65.9363 151.185 65.9664C151.178 65.9966 151.177 66.0279 151.183 66.0583C151.189 66.0888 151.201 66.1176 151.219 66.1429C151.237 66.1682 151.26 66.1894 151.287 66.2051C151.722 66.5553 170.853 94.5091 176.704 113.763C179.023 121.403 180.395 130.992 172.917 133.642C155.159 139.985 16.0714 142.048 2.92283 134.589C1.09585 133.557 0.669866 131.408 1.02958 128.512C1.58809 124.489 3.75585 119.045 6.36853 112.949C9.31252 115.789 33.7354 138.215 37.6922 137.372C41.6491 136.53 63.9042 126.192 64.8224 124.214C65.3558 122.84 65.638 121.381 65.6554 119.907C65.7675 119.753 65.8197 119.563 65.8023 119.373C65.7849 119.183 65.699 119.006 65.5608 118.875C64.0935 117.417 34.9849 94.3387 33.1106 94.4049C31.8043 94.4617 29.4377 95.8059 28.3112 96.4686C27.946 95.871 27.4022 95.4033 26.7567 95.1315C26.1113 94.8597 25.3967 94.7976 24.7141 94.954C24.0704 95.2139 23.494 95.6165 23.0284 96.1313C22.5627 96.6462 22.2199 97.2599 22.0257 97.9264C22.0363 97.9775 22.0642 98.0235 22.1047 98.0564C22.1452 98.0894 22.1959 98.1074 22.2481 98.1074C22.3004 98.1074 22.351 98.0894 22.3915 98.0564C22.432 98.0235 22.46 97.9775 22.4706 97.9264C23.0399 96.9635 23.9425 96.2428 25.0075 95.9006C25.4503 95.8326 25.9033 95.8917 26.3139 96.071C26.7244 96.2503 27.0757 96.5424 27.3267 96.9135L16.8003 101.41C16.2414 100.835 15.5436 100.415 14.7745 100.189C12.9759 99.7155 11.7643 100.899 11.0448 102.631C11.029 102.681 11.0308 102.735 11.05 102.783C11.0692 102.832 11.1046 102.872 11.1502 102.898C11.1958 102.924 11.2488 102.933 11.3003 102.924C11.3518 102.915 11.3987 102.888 11.433 102.849C12.6446 101.098 14.0456 100.501 15.7212 101.902C13.6954 102.801 10.865 104.079 8.87708 105.064C9.01907 104.837 29.4472 67.8427 29.4472 67.7481C30.3465 66.082 32.1545 63.1002 34.0193 62.712C34.8622 62.5283 35.722 62.4331 36.5847 62.4281C35.2689 64.6053 24.591 82.3071 24.5721 84.8062C24.5721 87.646 25.0643 87.2011 26.5789 87.646C28.0935 88.091 112.845 87.5703 112.996 87.5703C114.463 87.5703 120.2 87.381 120.73 86.9929C122.377 85.7812 122.008 83.9732 121.288 82.0704C121.118 81.6161 120.257 79.7323 119.102 77.2143C124.071 75.7186 127.811 77.6213 128.151 85.7339C128.492 92.7483 125.728 94.8877 120.436 94.5848C116.186 94.3387 113.252 93.0891 112.324 94.7457C111.283 96.5916 114.16 100.738 115.41 102.461C115.23 102.461 107.307 102.3 105.309 102.215C102.495 102.106 99.6766 102.14 96.8655 102.319C94.9297 102.361 93.005 102.625 91.129 103.104C90.4191 103.455 89.5008 105.282 89.1127 106.048C88.346 107.554 84.8529 117.001 83.8874 119.727C83.3194 121.298 81.3978 126.505 82.6852 127.423C82.6378 128.436 82.7988 129.79 83.6886 130.263C84.5784 130.736 96.8088 131.077 97.7459 131.096C99.4025 131.143 116.148 131.361 126.836 130.888C137.523 130.414 142.19 129.392 141.915 129.42C142.187 129.341 142.431 129.187 142.619 128.976C142.808 128.765 142.935 128.506 142.985 128.228C143.131 127.528 143.085 126.802 142.852 126.126C144.045 123.807 135.024 104.553 132.525 103.199C132.377 103.116 132.211 103.07 132.042 103.067C131.54 103.067 120.313 102.593 115.949 102.451C115.003 101.116 111.926 96.0899 113.11 95.0202C114.908 93.4488 129.931 101.325 129.126 85.6487C128.71 78.5585 125.444 74.4028 118.818 76.8072C118.24 75.5577 113.394 65.2017 112.097 62.447C117.121 62.7476 122.161 62.6368 127.167 62.1157C127.239 62.9991 127.493 63.8582 127.913 64.6385C128.334 65.4189 128.911 66.1038 129.609 66.65C133.396 69.4898 148.466 69.0639 151.202 65.5898C151.968 64.5414 152.498 63.3391 152.755 62.0659C153.011 60.7928 152.988 59.4791 152.688 58.2156C152.94 58.0553 153.135 57.8203 153.246 57.5435C153.398 57.25 153.246 56.8808 152.593 56.7483C151.751 56.6221 150.898 56.5714 150.047 56.5969C150.047 55.8206 150.094 54.3723 150.047 52.7252C150.132 52.6684 150.747 51.93 150.814 51.8448C151.568 50.9633 152.164 49.9576 152.574 48.8724C152.887 47.9921 153.01 46.9792 152.186 46.4869C150.918 45.7959 150.028 47.0644 149.602 48.4843C149.204 46.2976 148.286 43.0886 146.09 43.4104C142.36 43.9784 144.935 53.0186 146.147 56.5969C145.082 56.447 144.002 56.447 142.938 56.5969C144.121 53.6245 144.727 49.7812 141.688 49.2037C141.227 49.1019 140.747 49.1373 140.306 49.3055C139.865 49.4738 139.484 49.7675 139.208 50.1504C139.147 49.9361 139.033 49.7408 138.876 49.5827C138.719 49.4247 138.525 49.309 138.311 49.2465C138.097 49.1841 137.871 49.177 137.654 49.2258C137.436 49.2746 137.235 49.3777 137.069 49.5256C135.677 50.529 136.472 52.8293 138.091 53.5866C138.006 54.5598 138.006 55.5385 138.091 56.5117C137.083 56.3899 136.063 56.4122 135.062 56.5779C135.006 54.2666 134.752 51.9642 134.304 49.696C134.88 49.2867 135.364 48.7624 135.725 48.1561C136.087 47.5499 136.319 46.8751 136.406 46.1746C136.538 44.9156 136.094 43.8648 135.043 43.5903C133.727 43.2495 132.951 44.1677 132.724 45.4835C131.559 43.8743 129.278 43.2968 128.17 45.1427C124.62 41.4509 122.907 43.5145 123.806 45.1427C124.478 46.3923 126.23 47.0928 127.593 47.4809C127.593 49.6013 128.54 51.3904 129.713 53.2174C130.499 54.448 131.379 55.6313 132.061 56.5022C130.588 56.4549 129.114 56.55 127.659 56.7862C126.769 57.0228 126.627 57.6665 127.451 58.1304C127.19 59.24 127.095 60.3818 127.167 61.5193C122.082 61.2487 116.983 61.369 111.917 61.879C111.595 61.188 110.639 59.1717 110.525 58.935C110.412 58.6984 111.32 55.9532 112.598 30.4322C118.467 29.94 144.859 30.5269 147.283 29.5897C147.422 29.5399 147.545 29.454 147.639 29.3409C147.734 29.2278 147.797 29.0915 147.822 28.946C148.627 26.305 149.176 3.60498 147.822 1.49402C147.491 0.973376 146.308 0.81245 145.654 0.717788C137.22 -0.51282 102.025 0.0172868 100.217 0.973375C98.4085 1.92946 99.1753 11.2632 99.5161 13.1185C81.2368 12.5316 39.027 13.677 35.0512 15.1632C34.1045 15.504 33.7543 16.8009 33.565 17.7759C31.9936 25.8885 36.4048 51.9963 37.8816 60.0615C37.7869 60.0615 37.8816 60.0615 36.7267 61.8601C35.7492 61.7876 34.7664 61.8385 33.8016 62.0115C31.6433 62.3429 29.6554 65.3247 28.5573 67.1801C28.51 67.2748 25.7175 71.9132 25.301 72.6705C22.9249 72.3013 11.8779 72.4433 10.4769 72.519C9.07587 72.5948 7.637 72.6989 6.36853 72.7936C6.14134 72.7936 6.12241 73.229 6.36853 73.2385C9.01907 73.3994 9.99409 73.4562 12.0483 73.4846C17.0748 73.5603 24.4869 73.7686 24.7235 73.7402C24.2313 74.6016 16.9423 87.5703 15.9673 89.4068C11.7264 97.3584 8.3943 104.638 8.19551 105.253C7.0951 105.754 6.06158 106.39 5.11899 107.146C4.81495 107.98 4.63321 108.854 4.57941 109.74C4.53208 111.264 5.08112 111.633 5.92362 112.485C3.66299 117.329 1.80451 122.35 0.366947 127.499C-0.102363 129.582 -0.121727 131.741 0.310149 133.832C0.69666 135.922 1.41913 137.936 2.44951 139.795C2.91236 140.266 3.51214 140.577 4.1629 140.685C6.65251 141.386 14.3675 142.285 16.9518 142.578C16.7569 143.735 16.7029 144.911 16.7908 146.081C16.7934 147.286 16.9687 148.485 17.3115 149.64C17.3146 149.669 17.3233 149.697 17.3371 149.722C17.3509 149.747 17.3696 149.769 17.392 149.787C17.4144 149.805 17.4401 149.819 17.4677 149.827C17.4953 149.835 17.5243 149.837 17.5529 149.834C17.5815 149.831 17.6092 149.823 17.6344 149.809C17.6596 149.795 17.6819 149.776 17.6999 149.754C17.7179 149.731 17.7313 149.706 17.7394 149.678C17.7475 149.65 17.75 149.622 17.7469 149.593C17.8984 148.413 17.9396 147.221 17.87 146.034C17.8638 144.89 17.7336 143.751 17.4819 142.635C18.7882 142.749 20.0472 142.844 21.1453 142.881C20.9707 143.986 20.923 145.107 21.0033 146.223C21.0065 147.428 21.1818 148.627 21.5239 149.782C21.5239 149.84 21.5469 149.895 21.5877 149.936C21.6285 149.977 21.6839 150 21.7417 150C21.7994 150 21.8548 149.977 21.8956 149.936C21.9364 149.895 21.9594 149.84 21.9594 149.782C22.1159 148.603 22.1603 147.411 22.0919 146.223C22.0854 145.118 21.9585 144.016 21.7133 142.938C23.8242 142.986 54.8923 145.778 108.547 144.718C122.926 144.434 140.211 143.771 154.449 142.209C154.261 143.351 154.207 144.51 154.288 145.664C154.292 146.867 154.471 148.063 154.818 149.214C154.811 149.246 154.811 149.279 154.819 149.31C154.827 149.342 154.841 149.371 154.862 149.397C154.882 149.422 154.908 149.442 154.937 149.456C154.966 149.47 154.998 149.477 155.031 149.477C155.063 149.477 155.095 149.47 155.124 149.456C155.154 149.442 155.179 149.422 155.2 149.397C155.22 149.371 155.235 149.342 155.242 149.31C155.25 149.279 155.25 149.246 155.244 149.214C155.409 148.036 155.453 146.843 155.376 145.655C155.366 144.486 155.229 143.321 154.969 142.181C156.02 142.067 158.453 141.764 158.661 141.736C158.475 142.871 158.424 144.025 158.51 145.172C158.51 146.378 158.685 147.577 159.03 148.732C159.036 148.789 159.065 148.842 159.111 148.879C159.156 148.915 159.214 148.932 159.272 148.926C159.329 148.919 159.382 148.89 159.419 148.845C159.455 148.8 159.472 148.742 159.466 148.684C159.621 147.508 159.663 146.319 159.589 145.134C159.583 143.968 159.446 142.806 159.182 141.67C163.451 141.092 176.505 139.332 178.284 135.687C180.386 131.531 180.216 126.126 179.345 121.62ZM93.2021 106.38C93.3063 106.124 96.4774 105.433 99.9421 106.38C99.9738 106.373 100.007 106.373 100.038 106.381C100.07 106.389 100.099 106.403 100.124 106.424C100.149 106.444 100.17 106.47 100.184 106.499C100.198 106.528 100.205 106.56 100.205 106.593C100.205 106.625 100.198 106.657 100.184 106.686C100.17 106.716 100.149 106.741 100.124 106.762C100.099 106.782 100.07 106.797 100.038 106.804C100.007 106.812 99.9738 106.812 99.9421 106.806C98.2168 107.112 96.4553 107.157 94.7167 106.938C93.9026 106.806 92.8708 106.796 93.1737 106.38H93.2021ZM141.868 128.89C133.112 130.556 84.7393 130.178 84.0104 129.837C83.2815 129.496 83.2153 128.398 83.1963 127.679C88.4406 129.383 139.681 128.067 142.531 126.562C142.682 127.395 142.72 128.729 141.84 128.89H141.868ZM123.494 106.484C123.494 106.162 125.577 105.982 125.671 105.973C126.909 105.877 128.153 105.877 129.391 105.973C130.083 106.048 131.039 106.143 130.963 106.436C130.887 106.73 129.458 106.853 129.212 106.891C128.286 106.976 127.358 107.014 126.429 107.004C125.804 106.986 123.428 106.872 123.466 106.484H123.494ZM135.658 109.636C138.026 114.149 140.015 118.851 141.603 123.693C141.805 124.305 141.916 124.943 141.934 125.587C137.665 126.912 88.4595 128.275 83.4803 126.846C83.2437 126.779 83.1774 126.846 83.1206 126.448C82.7609 123.873 86.9734 113.64 87.9484 111.255C105.858 110.658 135.469 109.74 135.63 109.636H135.658ZM127.688 47.0549C126.652 46.4862 125.713 45.7579 124.904 44.8966C124.535 44.3381 124.62 43.95 125.709 44.4801C126.391 44.7925 127.347 45.351 127.99 45.7391C127.825 46.1603 127.723 46.6038 127.688 47.0549ZM150.406 48.7494C151.164 47.3862 151.912 46.9981 151.836 47.8027C151.429 49.2426 150.851 50.6283 150.113 51.93C150.056 50.9834 149.99 50.3492 149.914 49.7244C149.952 49.5919 150.141 49.1943 150.378 48.7494H150.406ZM146.383 56.985C146.573 57.5245 146.696 57.8464 146.705 57.8653C146.716 57.8922 146.731 57.9166 146.751 57.9374C146.771 57.9581 146.795 57.9747 146.821 57.9861C146.848 57.9976 146.876 58.0037 146.905 58.004C146.934 58.0044 146.962 57.9991 146.989 57.9884C147.406 57.8275 146.79 57.4394 145.806 51.7312C145.512 50.0273 144.642 44.7736 146.364 44.5274C147.765 44.3192 148.523 47.7933 148.788 49.1659C149.279 51.8117 149.595 54.4869 149.734 57.1743C149.734 57.2267 149.752 57.2776 149.786 57.3177C149.82 57.3577 149.867 57.3842 149.919 57.3923C149.97 57.4003 150.023 57.3894 150.068 57.3615C150.112 57.3337 150.145 57.2907 150.16 57.2406C150.163 57.187 150.163 57.1332 150.16 57.0796C151.016 57.1049 151.867 57.2223 152.697 57.4299C152.592 57.5533 152.459 57.6505 152.309 57.7139C150.321 58.7362 144.31 58.5374 142.237 58.4996C142.521 57.9316 142.72 57.4961 142.938 56.9755C144.069 57.1614 145.223 57.1646 146.355 56.985H146.383ZM139 54.9119C139.217 53.0186 139.7 49.9989 141.612 50.3586C143.525 50.7183 143.042 53.4919 142.625 55.3473C142.368 56.4117 142.052 57.4609 141.679 58.4901H138.839C138.816 57.2958 138.86 56.1012 138.971 54.9119H139ZM137.797 50.4628C137.841 50.4208 137.894 50.3885 137.951 50.368C138.008 50.3475 138.069 50.3392 138.13 50.3437C138.19 50.3482 138.249 50.3653 138.303 50.3939C138.357 50.4226 138.404 50.4622 138.441 50.5101C138.592 50.6611 138.728 50.8259 138.848 51.0023C138.579 51.606 138.392 52.2426 138.29 52.8956C137.797 52.214 137.163 50.9739 137.797 50.4628ZM134.816 44.7073C136.046 45.0954 135.081 48.3329 134.257 49.3173C134.03 48.2985 133.69 47.308 133.244 46.3639C133.519 45.5309 133.983 44.4422 134.816 44.6978V44.7073ZM132.487 57.0891C132.951 57.676 133.254 58.0357 133.254 58.0357C133.291 58.0728 133.341 58.095 133.394 58.0981C133.447 58.1012 133.499 58.0851 133.54 58.0526C133.582 58.0202 133.61 57.9737 133.62 57.9218C133.63 57.87 133.621 57.8162 133.594 57.7707C133.594 57.7707 131.919 55.3852 130.537 52.9145C129.496 51.0213 128.502 49.128 128.776 47.036C128.994 45.3889 129.865 44.6884 131.332 45.6445C133.452 47.0076 134.418 55.4136 134.721 57.9505C134.724 58.0169 134.747 58.0808 134.788 58.1333C134.829 58.1858 134.885 58.2245 134.948 58.244C135.204 58.244 135.166 57.9695 135.156 57.8369C135.147 57.7044 135.156 57.0418 135.156 56.9755C136.162 57.1027 137.18 57.1027 138.186 56.9755C138.242 57.6665 138.309 58.2061 138.356 58.4901C134.995 58.4901 130.934 58.7173 128.151 57.6287C129.582 57.3457 131.031 57.1653 132.487 57.0891ZM127.953 58.4806C129.337 59.0172 130.796 59.3365 132.279 59.4273C133.954 59.5787 145.361 59.5977 146.658 59.5314C148.613 59.4993 150.55 59.1376 152.385 58.4617C152.561 59.6241 152.495 60.8104 152.19 61.9459C151.885 63.0814 151.349 64.1415 150.615 65.0597C148.314 67.7575 133.765 68.3728 130.272 65.9116C127.972 64.3308 127.555 61.169 127.953 58.4712V58.4806ZM120.323 86.2735C120.522 86.9077 30.2613 86.9361 30.1666 86.9266C26.3801 86.9266 27.3267 86.9266 26.0583 86.6142C25.7175 86.5385 25.6512 86.5385 25.5849 86.2072C25.5047 85.6875 25.4824 85.1604 25.5187 84.6358C25.5385 84.6746 25.5706 84.7059 25.6099 84.7247C25.6493 84.7435 25.6937 84.7489 25.7364 84.7399C25.7364 84.7399 120.294 83.4525 120.91 83.4336C121.165 84.5411 121.203 85.573 120.323 86.2735ZM146.951 28.823C146.951 28.823 147.008 28.7283 147.027 28.7567C147.046 28.7851 146.951 28.8135 146.904 28.823H146.951ZM99.8758 4.94919C99.8758 4.33388 100.122 2.00519 100.671 1.72121C101.921 1.09644 141.631 0.566328 147.055 2.26078C148.002 4.24869 147.699 26.5795 146.904 28.823C142.247 29.5519 118.808 29.4951 112.712 30.1199C113.081 22.6699 113.242 16.3938 112.939 15.1727C112.881 15.0134 112.786 14.8699 112.663 14.7533C112.54 14.6367 112.391 14.5502 112.229 14.5006C110.156 13.6013 102.356 13.3457 100.084 13.27C99.7892 10.5066 99.7196 7.72385 99.8758 4.94919ZM34.4169 28.7851C34.2749 26.7972 33.5744 16.763 35.4677 16.0625C36.4143 15.7312 39.7464 15.3999 44.5836 15.1159C53.8511 14.5385 68.4574 14.0746 81.748 13.98C84.7015 13.98 109.654 13.7622 112.097 15.4378C112.816 18.7131 110.516 55.1012 110.005 58.6132C87.636 59.3421 61.1306 60.4401 38.5726 59.8911C38.1939 57.7233 35.2973 40.9965 34.4169 28.7851ZM38.2791 60.5253C38.2809 60.5033 38.2809 60.4811 38.2791 60.4591C54.2297 60.9513 104.145 59.3137 110.222 59.2758C110.894 60.8377 120.332 81.777 120.73 82.9413C120.626 82.9413 25.6607 84.2287 25.5376 84.3234C26.7304 80.3287 36.5942 63.4409 38.2791 60.5253ZM64.3018 123.949C63.6013 125.312 42.378 134.797 38.0141 136.113C38.0987 135.677 38.1305 135.232 38.1088 134.788C44.5552 132.554 58.5463 126.656 64.8224 122.482C64.7028 122.991 64.5282 123.486 64.3018 123.958V123.949ZM64.9549 121.857C63.0617 122.974 61.2536 123.75 38.0993 134.277C38.1002 133.848 38.0429 133.421 37.9289 133.008C40.9581 131.588 61.4998 123.627 65.1632 120.456C65.1159 120.863 65.0496 121.355 64.9549 121.866V121.857ZM16.1945 102.432C16.6497 102.968 16.9314 103.63 17.0024 104.33C17.0734 105.03 16.9303 105.735 16.592 106.351C16.4406 106.588 16.8003 106.834 16.9518 106.588C17.5232 105.965 17.8611 105.163 17.9077 104.319C17.9543 103.475 17.7068 102.641 17.2073 101.959C21.8079 99.848 26.3328 97.8601 27.5729 97.3205C27.8831 97.9508 28.0491 98.6422 28.059 99.3446C28.0688 100.047 27.9221 100.743 27.6297 101.382C27.5161 101.684 27.8568 101.798 28.0178 101.599C28.5384 100.938 28.8624 100.143 28.9528 99.3061C29.0432 98.4691 28.8963 97.6236 28.5289 96.8661C29.5513 96.2887 31.9368 94.9729 33.1011 94.9729C34.5589 94.9729 64.1408 119.036 64.6899 119.585C62.2192 122.131 39.2826 131.21 37.3515 132.137C33.281 131.191 8.44163 109.825 6.11294 107.629C7.56127 106.427 14.5663 103.19 16.1945 102.432ZM5.39351 108.065C8.34697 110.952 32.9875 132.459 37.1148 133.141C37.032 133.497 36.9938 133.863 37.0012 134.229C30.3749 130.992 11.4424 114.596 5.17578 109.324C5.20418 109.324 5.34618 108.396 5.42191 108.065H5.39351ZM5.5355 111.312C5.26848 110.905 5.13602 110.425 5.15685 109.939C11.3478 116.187 28.8224 131.55 36.9917 134.75C36.9749 135.256 37.0258 135.762 37.1432 136.255C32.287 135.166 6.1792 112.088 5.5639 111.312H5.5355ZM177.821 135.375C171.705 147.51 5.76269 144.339 3.07429 139.606C1.93473 137.625 1.16491 135.454 0.802393 133.197C1.16757 133.997 1.77753 134.66 2.54418 135.091C16.4784 143.203 155.111 141.083 173.211 134.58C177.044 133.197 178.976 130.216 179.411 126.06C179.668 129.251 179.114 132.455 177.802 135.375H177.821Z" fill="#E678D0"/>
<path d="M36.0738 70.995C103.009 71.9416 109.399 71.3642 111.273 71.0707C111.718 71.0045 112.002 70.853 111.983 70.3324C111.983 68.9598 108.765 62.6647 107.913 62.2293C107.534 62.0305 39.7562 62.9866 39.5195 63.0623C39.4754 63.0729 39.4341 63.0928 39.3982 63.1205C39.3623 63.1482 39.3327 63.1833 39.3113 63.2232C38.6676 64.274 35.5248 69.4615 35.6668 70.6353C35.6821 70.7332 35.7312 70.8228 35.8055 70.8884C35.8798 70.9541 35.9747 70.9918 36.0738 70.995ZM39.794 63.7155C40.4756 63.6303 107.156 62.9676 107.563 63.0055C108.269 64.0221 108.902 65.0883 109.456 66.1956C107.903 66.1956 38.5161 66.5648 38.1564 66.5743C38.5729 65.7412 39.1219 64.7946 39.794 63.7155ZM37.9008 67.0287C38.27 67.0287 108.481 66.6689 109.683 66.6405C110.306 67.8004 110.798 69.0259 111.15 70.2945C107.78 70.8341 77.072 70.569 36.4146 70.2945C36.7945 69.1479 37.2859 68.0414 37.8819 66.9908L37.9008 67.0287ZM88.3179 74.2135C88.129 73.7955 87.8205 73.4429 87.4312 73.2003C87.042 72.9577 86.5896 72.8359 86.1312 72.8504C83.7267 72.8504 63.5353 72.2919 61.7178 73.0302C60.5575 74.4362 59.6597 76.0394 59.0673 77.7633C59.0105 78.1799 59.2187 78.3692 59.4743 78.3976C65.154 79.0129 83.9823 79.5998 88.8669 78.7005C89.4727 78.5869 89.5485 77.9432 89.4254 77.3279C89.1323 76.2643 88.7622 75.2234 88.3179 74.2135ZM59.7394 77.7633C60.2831 76.2273 61.0211 74.7671 61.9355 73.4184C63.3744 72.945 82.0891 73.9295 86.1596 73.9201C86.4019 73.9114 86.6416 73.9729 86.8498 74.0971C87.058 74.2214 87.226 74.4032 87.3334 74.6206C87.7935 75.6038 88.1519 76.6315 88.4031 77.6876C83.6037 78.4354 63.2229 78.0095 59.7394 77.7633ZM154.061 75.4252C152.726 73.5887 146.033 73.6739 143.79 73.7402C141.897 73.7402 135.015 74.0526 135.015 75.908C135.023 76.0583 135.066 76.2045 135.142 76.3346C135.218 76.4646 135.323 76.5747 135.45 76.6558C135.63 76.7978 134.39 89.2743 136.094 95.9669C136.652 98.182 137.372 99.2801 139.483 100.198C143.534 101.959 150.255 101.571 152.953 97.8128C153.493 96.7147 153.379 93.5151 153.426 92.5401C157.62 93.3731 161.056 91.6692 161.946 87.1538C162.505 84.2477 161.785 82.345 160.545 81.1901C159.717 80.5156 158.737 80.0514 157.691 79.8372C156.644 79.6229 155.561 79.6649 154.534 79.9595C154.498 79.9716 154.46 79.975 154.423 79.9692C154.385 79.9635 154.35 79.9489 154.319 79.9267C154.288 79.9044 154.264 79.8752 154.247 79.8414C154.23 79.8075 154.221 79.7701 154.222 79.7323C154.222 79.2306 154.402 75.8322 154.061 75.4252ZM136.075 75.624C138.631 74.1283 149.044 74.0147 152.404 75.5388C152.518 75.5956 152.944 75.8133 152.944 75.908C152.944 76.0026 152.508 76.2298 152.404 76.2771C149.867 77.4226 140.808 77.9432 136.047 76.2014C135.715 76.0216 136.047 75.6618 136.047 75.624H136.075ZM154.799 80.9251C155.659 80.6771 156.567 80.6415 157.444 80.8212C158.321 81.0009 159.142 81.3906 159.835 81.9569C160.857 82.9035 161.369 84.5317 160.895 86.9456C160.801 87.7847 160.51 88.5899 160.047 89.2955C159.583 90.0011 158.959 90.5874 158.226 91.0066C156.673 91.7053 154.925 91.8392 153.285 91.3852C153.204 91.356 153.118 91.3436 153.032 91.349C152.947 91.3543 152.863 91.3772 152.787 91.4163C152.71 91.4554 152.643 91.5098 152.588 91.5761C152.534 91.6424 152.494 91.7192 152.47 91.8017C152.215 92.5212 152.575 95.4273 152.054 97.2638C149.659 100.511 143.534 100.804 139.909 99.2801C138.072 98.4944 137.561 97.6803 137.069 95.7208C135.8 91.0728 135.725 81.6066 136.009 76.9493C138.991 78.3597 149.318 78.7668 153.379 76.6842C153.379 79.6187 153.019 80.111 153.758 80.7073C153.901 80.8151 154.065 80.8904 154.24 80.928C154.415 80.9656 154.596 80.9646 154.771 80.9251H154.799ZM62.8443 100.984C60.3582 98.8754 57.6838 96.9996 54.8548 95.38C53.765 94.737 52.6059 94.2193 51.3996 93.837C50.3867 93.5719 49.9608 94.0926 50.169 94.7836C50.5957 95.7758 51.1598 96.7031 51.8445 97.5383C54.0226 100.295 56.5274 102.778 59.3039 104.931C63.5258 108.462 68.9973 112.741 72.9921 115.78C73.1956 115.928 73.4268 116.035 73.672 116.093C73.9173 116.151 74.1717 116.16 74.4204 116.119C74.669 116.077 74.9069 115.986 75.12 115.852C75.3331 115.717 75.5172 115.541 75.6615 115.335C76.362 114.568 76.7975 113.224 76.0118 112.495C75.103 111.681 69.5464 106.446 62.8443 100.984ZM53.7756 98.8825L52.4788 96.7904C52.9405 96.5987 53.3309 96.2678 53.5958 95.8438L55.65 96.6768C55.1345 96.7791 54.6688 97.0527 54.3285 97.4531C53.9882 97.8535 53.7934 98.3573 53.7756 98.8825ZM56.6818 101.296C55.9977 100.721 55.3643 100.087 54.7885 99.4031C54.8548 98.2577 55.2145 97.7465 56.3599 97.7087C57.1231 98.0733 57.8437 98.5209 58.5087 99.0434C57.9997 99.1674 57.5454 99.4549 57.2154 99.8618C56.8854 100.269 56.6979 100.773 56.6818 101.296ZM72.869 115.07C71.8182 114.189 57.8461 102.338 56.9847 101.58C57.0569 101.05 57.2884 100.555 57.6485 100.159C58.0085 99.7638 58.4801 99.4869 59.001 99.3653C62.2668 101.789 66.9621 105.802 75.1504 112.618C74.8316 112.602 74.5132 112.655 74.2174 112.775C73.9217 112.895 73.6558 113.079 73.4384 113.312C73.221 113.546 73.0573 113.824 72.959 114.128C72.8606 114.431 72.8299 114.753 72.869 115.07ZM147.879 125.558C149.063 126.363 149.886 125.994 150.653 124.877C152.546 122.188 159.172 110.289 159.172 110.195C159.172 110.1 159.248 110.28 158.936 106.455C158.922 106.312 158.87 106.174 158.785 106.057C158.7 105.941 158.586 105.849 158.453 105.792C158.32 105.735 158.175 105.714 158.032 105.733C157.888 105.751 157.753 105.808 157.639 105.897L154.402 108.254C154.402 108.254 147.217 123.107 147.141 123.239C147.011 123.655 147.012 124.1 147.144 124.515C147.276 124.93 147.533 125.294 147.879 125.558ZM157.904 107.052C157.961 107.743 158.037 108.661 158.093 109.295C157.39 108.959 156.654 108.695 155.897 108.51L157.904 107.052ZM155.197 109.153C156.017 109.735 156.965 110.111 157.961 110.251C157.819 110.498 150.587 123.693 150.511 123.826C150.291 123.379 149.93 123.017 149.483 122.796C149.036 122.575 148.529 122.508 148.04 122.605C148.779 121.232 154.932 109.627 155.197 109.153Z" fill="#E678D0"/>
<path d="M150.842 90.3817C150.74 90.2385 150.61 90.117 150.461 90.0244C150.311 89.9317 150.145 89.8698 149.971 89.8421C149.411 89.6925 148.842 89.5787 148.267 89.5014C148.589 91.7543 148.778 94.2345 148.769 94.4522C148.755 94.5963 148.684 94.7289 148.572 94.8211C148.46 94.9133 148.317 94.9576 148.173 94.9444C148.028 94.9277 147.895 94.855 147.803 94.7418C147.711 94.6286 147.667 94.4839 147.68 94.3386C147.68 94.1777 147.623 93.5245 147.576 89.4067C145.683 89.17 136.567 88.4601 136.927 90.2776C136.927 90.3722 136.179 95.0107 139.075 97.2353C141.972 99.4598 147.765 99.0244 149.791 96.7619C150.366 96.0733 150.745 95.2429 150.889 94.3575C151.113 93.0402 151.097 91.6933 150.842 90.3817ZM153.114 81.8148C153.114 82.2408 152.546 85.4971 152.167 89.8705L152.622 89.9652C154.287 90.3188 156.022 90.1297 157.572 89.4256C158.113 89.1254 158.561 88.6822 158.866 88.1446C159.172 87.6069 159.323 86.9956 159.305 86.3775C159.369 85.6091 159.235 84.8371 158.917 84.135C158.598 83.4329 158.105 82.8241 157.484 82.3666C156.863 81.9092 156.136 81.6183 155.371 81.5217C154.606 81.4251 153.829 81.526 153.114 81.8148ZM153.54 82.1366C154.144 82.041 154.762 82.076 155.351 82.2393C155.941 82.4026 156.488 82.6904 156.957 83.0833C157.407 83.4962 157.756 84.0074 157.976 84.5772C158.196 85.1469 158.281 85.7598 158.226 86.368C158.14 88.8009 155.641 89.2647 153.246 89.0186C153.36 87.2957 153.455 85.3173 153.54 82.1366ZM143.402 26.57C143.399 26.7386 143.43 26.906 143.492 27.0626C143.555 27.2192 143.648 27.3619 143.766 27.4825C143.884 27.6031 144.024 27.6991 144.179 27.765C144.335 27.831 144.501 27.8656 144.67 27.8668C144.928 27.8725 145.181 27.8012 145.398 27.6622C145.615 27.5232 145.786 27.3227 145.888 27.0862C145.991 26.8498 146.021 26.5882 145.974 26.3348C145.927 26.0814 145.806 25.8477 145.626 25.6634C145.445 25.4792 145.214 25.3529 144.962 25.3005C144.71 25.2481 144.448 25.2721 144.209 25.3693C143.97 25.4666 143.766 25.6327 143.622 25.8466C143.478 26.0604 143.402 26.3123 143.402 26.57ZM39.7938 57.799C40.0115 58.225 40.2955 58.2723 40.4754 58.1398C40.6552 58.0073 100.605 57.4866 105.063 57.25C106.022 57.2647 106.978 57.1436 107.903 56.8902C110.033 54.997 110.866 19.6028 110.033 17.9652C107.903 13.7148 41.2421 16.4506 37.1433 17.6906C33.8774 18.6751 38.2887 54.7793 39.7938 57.799ZM36.9634 19.2242C36.9634 19.0538 37.1717 18.3911 37.3326 18.3438C41.8669 16.9807 107.704 14.7372 109.494 18.2965C109.646 19.0087 109.716 19.7361 109.702 20.4642C109.863 24.5915 109.702 33.433 109.276 41.3562C109.191 42.8708 108.519 55.281 107.534 56.4075C103.606 57.2405 43.0691 57.4298 40.3807 57.5339C38.8472 53.9747 35.534 25.4719 36.9634 19.2242ZM144.793 5.69695C145.05 5.70257 145.303 5.63156 145.52 5.49295C145.737 5.35433 145.908 5.15437 146.01 4.91851C146.113 4.68264 146.143 4.42153 146.097 4.1684C146.051 3.91526 145.931 3.68153 145.752 3.49694C145.573 3.31236 145.343 3.18526 145.091 3.13181C144.839 3.07836 144.577 3.10098 144.338 3.19679C144.1 3.2926 143.895 3.45727 143.75 3.66985C143.605 3.88244 143.527 4.13333 143.525 4.39061C143.521 4.56001 143.551 4.72847 143.613 4.88619C143.675 5.04391 143.767 5.18773 143.885 5.3093C144.003 5.43086 144.144 5.52774 144.3 5.59429C144.456 5.66084 144.624 5.69573 144.793 5.69695Z" fill="#E678D0"/>
<path d="M55.4887 43.0791H66.7345C68.0359 43.0741 69.2821 42.553 70.1996 41.6301C71.1172 40.7072 71.6311 39.458 71.6285 38.1567V29.0312C71.6287 27.7271 71.1152 26.4753 70.1992 25.547C69.2833 24.6186 68.0386 24.0884 66.7345 24.0709H55.4887C54.8366 24.0684 54.1904 24.195 53.5875 24.4434C52.9845 24.6918 52.4367 25.0571 51.9756 25.5182C51.5145 25.9793 51.1492 26.5271 50.9008 27.1301C50.6524 27.733 50.5259 28.3791 50.5284 29.0312V38.1567C50.5308 38.8056 50.6611 39.4476 50.9117 40.0462C51.1624 40.6448 51.5284 41.1881 51.989 41.6452C52.4496 42.1023 52.9958 42.4642 53.5962 42.7102C54.1967 42.9562 54.8397 43.0816 55.4887 43.0791ZM51.333 29.0312C51.3502 27.9371 51.7945 26.893 52.5709 26.1219C53.3473 25.3508 54.3944 24.9137 55.4887 24.904H66.7345C67.2871 24.8977 67.8355 25.001 68.348 25.2079C68.8605 25.4147 69.327 25.7211 69.7204 26.1093C70.1138 26.4974 70.4264 26.9596 70.6402 27.4693C70.854 27.9789 70.9647 28.5259 70.9659 29.0786V38.1567C70.9634 38.7099 70.852 39.2571 70.638 39.7673C70.424 40.2774 70.1117 40.7404 69.7187 41.1298C69.3258 41.5192 68.86 41.8274 68.348 42.0368C67.836 42.2462 67.2877 42.3527 66.7345 42.3502H55.4887C54.9404 42.3477 54.3981 42.2373 53.8925 42.0252C53.387 41.8131 52.9282 41.5035 52.5423 41.1141C52.1564 40.7247 51.851 40.2631 51.6435 39.7557C51.436 39.2482 51.3305 38.7049 51.333 38.1567V29.0312ZM85.8941 49.838C86.0835 50.3965 86.5568 50.2734 86.6893 49.9232C86.8692 49.4215 87.9199 45.8148 88.0524 45.1901C88.7813 44.9629 86.7272 45.6728 93.079 43.3631C93.1449 43.3376 93.2015 43.2927 93.2414 43.2344C93.2813 43.1761 93.3027 43.1071 93.3027 43.0365C93.3027 42.9659 93.2813 42.8969 93.2414 42.8386C93.2015 42.7803 93.1449 42.7354 93.079 42.7099L83.3477 38.8193C83.288 38.791 83.2218 38.7789 83.1559 38.7841C83.09 38.7894 83.0266 38.8118 82.972 38.8491C82.9175 38.8864 82.8736 38.9374 82.8449 38.997C82.8161 39.0565 82.8035 39.1225 82.8082 39.1885C82.8082 39.1885 85.3735 48.3328 85.8941 49.838ZM83.7832 39.8322L91.9809 43.0602C90.8828 43.4672 89.0275 44.1677 88.1376 44.5274C87.74 44.6789 87.5791 44.7451 87.4845 44.8682C87.3898 44.9913 87.7211 44.2529 86.3296 48.5411L83.7832 39.8322ZM106.123 12.0772C106.135 12.134 106.165 12.1851 106.21 12.2214C106.255 12.2578 106.312 12.2771 106.37 12.276C106.568 12.276 112.693 12.8629 113.943 12.5316C114.747 12.3139 114.889 10.894 114.965 10.0609C115.06 8.80193 114.965 5.71594 114.435 4.66519C113.715 3.24526 108.405 3.71857 106.862 3.99309C106.452 4.05071 106.061 4.19952 105.716 4.42853C105.516 4.6613 105.399 4.95463 105.385 5.26156C105.376 7.55391 105.623 9.84008 106.123 12.0772ZM106.398 5.15743C107.894 4.69359 112.153 4.51373 113.507 5.15743C113.971 6.38804 114.217 10.6194 113.659 11.6039C112.778 11.8311 107.401 11.8311 106.502 11.8406C106.474 11.1022 106.038 7.11694 106.398 5.15743ZM118.827 12.0394C118.84 12.0953 118.871 12.1454 118.916 12.1814C118.96 12.2175 119.016 12.2375 119.073 12.2382C119.272 12.2382 125.397 12.8251 126.646 12.4937C127.451 12.276 127.593 10.8561 127.678 10.0231C127.763 8.76406 127.678 5.67807 127.138 4.62732C126.419 3.19793 121.108 3.6807 119.565 3.95522C119.157 4.01674 118.766 4.16524 118.42 4.39067C118.224 4.62598 118.108 4.91782 118.089 5.2237C118.08 7.51601 118.328 9.80212 118.827 12.0394ZM119.102 5.11957C120.597 4.64626 124.857 4.47587 126.211 5.11957C126.675 6.35018 126.921 10.5816 126.362 11.5566C125.482 11.7933 120.105 11.7933 119.206 11.8027C119.177 11.0644 118.742 7.07907 119.102 5.11957ZM132.118 12.4559C132.129 12.5127 132.16 12.5637 132.205 12.6001C132.25 12.6364 132.306 12.6558 132.364 12.6547C132.563 12.6547 138.687 13.2416 139.937 12.9103C140.741 12.6925 140.883 11.2726 140.959 10.4396C141.054 9.18057 140.959 6.09459 140.429 5.04384C139.71 3.62391 134.399 4.09722 132.856 4.37174C132.447 4.4318 132.056 4.58041 131.711 4.80718C131.51 5.03995 131.393 5.33328 131.379 5.64021C131.37 7.93256 131.618 10.2187 132.118 12.4559ZM132.392 5.53608C133.888 5.07224 138.148 4.89238 139.501 5.53608C139.965 6.76669 140.211 10.9981 139.653 11.9826C138.772 12.2098 133.396 12.2098 132.496 12.2192C132.468 11.4809 132.032 7.49559 132.392 5.53608ZM118.912 26.5984C118.979 26.7877 119.13 26.8067 119.158 26.7972C119.367 26.7972 125.482 27.3841 126.731 27.0528C127.536 26.8351 127.678 25.4151 127.763 24.5821C127.848 23.3231 127.763 20.2371 127.233 19.1958C126.504 17.7664 121.194 18.2492 119.66 18.5143C119.248 18.573 118.854 18.7216 118.505 18.9497C118.307 19.1876 118.191 19.483 118.174 19.7922C118.165 22.0814 118.413 24.3644 118.912 26.5984ZM119.196 19.6786C120.692 19.2148 124.942 19.0349 126.296 19.6786C126.76 20.9092 127.006 25.1406 126.447 26.1251C125.567 26.3523 120.2 26.3523 119.3 26.3618C119.263 25.6234 118.827 21.6381 119.196 19.6786ZM141.044 18.8077C142.559 16.5737 143.884 14.5574 143.932 14.4627C143.979 14.3681 143.288 13.5161 142.881 14.1219C139.984 18.5805 140.382 18.1545 140.173 18.0788C138.507 17.473 133.131 17.6812 132.288 18.4669C131.72 18.997 131.938 20.9187 132.004 21.7422C131.398 21.4015 130.934 21.1553 130.764 21.0891C130.329 20.9187 130.357 21.3447 130.594 21.4961L132.07 22.4427C132.19 23.6868 132.383 24.9227 132.648 26.144C132.657 26.2017 132.687 26.2539 132.733 26.2906C132.778 26.3273 132.836 26.3459 132.894 26.3428C133.093 26.3428 139.217 26.9297 140.467 26.5984C142.095 26.144 141.593 20.1709 141.044 18.8077ZM132.922 19.1958C135.149 18.6891 137.456 18.6472 139.7 19.0728L136.415 24.2508C136.084 24.0615 134.314 23.0202 132.837 22.1872C132.775 21.199 132.803 20.2072 132.922 19.2242V19.1958ZM140.183 25.6329C139.293 25.8695 133.926 25.8695 133.026 25.879C133.026 25.5003 132.884 24.2603 132.818 22.8877L136.415 25.1217C136.506 25.1316 136.598 25.1156 136.68 25.0753C136.762 25.0351 136.831 24.9724 136.879 24.8945C137.182 24.5064 138.706 22.2913 140.259 20.0099C140.552 21.7138 140.647 24.8188 140.202 25.6329H140.183ZM102.545 5.38462C102.802 5.38836 103.054 5.31574 103.27 5.17595C103.485 5.03616 103.654 4.83551 103.756 4.59945C103.857 4.36339 103.886 4.10255 103.839 3.85002C103.792 3.59748 103.671 3.36463 103.491 3.18099C103.312 2.99736 103.081 2.87121 102.83 2.81855C102.578 2.7659 102.317 2.7891 102.079 2.88522C101.841 2.98134 101.636 3.14605 101.492 3.35846C101.347 3.57086 101.269 3.8214 101.267 4.07828C101.267 4.41988 101.401 4.74792 101.64 4.99211C101.879 5.23629 102.204 5.3772 102.545 5.38462Z" fill="#E678D0"/>
</svg>
