<svg width="33" height="30" viewBox="0 0 33 30" fill="none" xmlns="http://www.w3.org/2000/svg">
<rect width="32.3571" height="30" rx="10" fill="#004455"/>
<path d="M24.0865 14.1961C24.0888 13.6397 23.9366 13.0925 23.6452 12.6101C23.3538 12.1276 22.9336 11.727 22.4272 11.4488C22.4397 11.3122 22.4397 11.1748 22.4272 11.0382C22.4272 10.4101 22.1649 9.80766 21.6982 9.3635C21.2314 8.91933 20.5983 8.6698 19.9382 8.6698H19.7888C19.6507 8.30531 19.4206 7.97865 19.1189 7.71845C18.8172 7.45825 18.453 7.27246 18.0582 7.17739C17.6634 7.08231 17.2502 7.08085 16.8547 7.17312C16.4592 7.2654 16.0936 7.44859 15.7898 7.70665C15.4861 7.44859 15.1204 7.2654 14.7249 7.17312C14.3294 7.08085 13.9162 7.08231 13.5214 7.17739C13.1267 7.27246 12.7625 7.45825 12.4607 7.71845C12.159 7.97865 11.929 8.30531 11.7908 8.6698H11.6415C10.9813 8.6698 10.3482 8.91933 9.88147 9.3635C9.41469 9.80766 9.15246 10.4101 9.15246 11.0382C9.13997 11.1748 9.13997 11.3122 9.15246 11.4488C8.68159 11.702 8.2829 12.0609 7.99112 12.4943C7.69933 12.9277 7.52328 13.4223 7.4783 13.9352C7.43331 14.4481 7.52075 14.9637 7.73301 15.4371C7.94526 15.9105 8.2759 16.3274 8.69614 16.6514C8.42423 17.134 8.28886 17.6755 8.30333 18.2229C8.31779 18.7703 8.48158 19.3047 8.77863 19.7737C9.07567 20.2426 9.49576 20.6301 9.99766 20.8979C10.4996 21.1657 11.066 21.3048 11.6415 21.3014H11.7908C11.929 21.6659 12.159 21.9925 12.4607 22.2527C12.7625 22.5129 13.1267 22.6987 13.5214 22.7938C13.9162 22.8889 14.3294 22.8903 14.7249 22.7981C15.1204 22.7058 15.4861 22.5226 15.7898 22.2645C16.0936 22.5226 16.4592 22.7058 16.8547 22.7981C17.2502 22.8903 17.6634 22.8889 18.0582 22.7938C18.453 22.6987 18.8172 22.5129 19.1189 22.2527C19.4206 21.9925 19.6507 21.6659 19.7888 21.3014H19.9382C20.5101 21.2979 21.0714 21.1539 21.5675 20.8833C22.0637 20.6126 22.478 20.2246 22.7702 19.7567C23.0623 19.2889 23.2225 18.7571 23.2351 18.213C23.2476 17.669 23.1123 17.131 22.842 16.6514C23.229 16.3566 23.5416 15.983 23.757 15.5581C23.9724 15.1332 24.085 14.6678 24.0865 14.1961ZM14.9601 12.2619C14.779 12.1644 14.5904 12.0799 14.396 12.0093C14.1869 11.9423 13.9585 11.957 13.7609 12.0503C13.5633 12.1436 13.4127 12.3077 13.3423 12.5066C13.2719 12.7056 13.2874 12.9229 13.3854 13.111C13.4834 13.299 13.6559 13.4423 13.865 13.5093C14.1844 13.6191 14.4606 13.8196 14.6565 14.0836C14.8523 14.3476 14.9583 14.6624 14.9601 14.9856V16.2093C14.779 16.1117 14.5904 16.0273 14.396 15.9566C14.1869 15.8896 13.9585 15.9044 13.7609 15.9977C13.5633 16.091 13.4127 16.2551 13.3423 16.454C13.2719 16.6529 13.2874 16.8703 13.3854 17.0583C13.4834 17.2464 13.6559 17.3896 13.865 17.4566C14.1844 17.5665 14.4606 17.767 14.6565 18.031C14.8523 18.295 14.9583 18.6098 14.9601 18.933V20.5119C14.9601 20.7213 14.8727 20.9221 14.7171 21.0702C14.5615 21.2182 14.3505 21.3014 14.1305 21.3014C13.97 21.3004 13.8132 21.2551 13.6792 21.171C13.5452 21.087 13.4397 20.9677 13.3755 20.8277C13.5147 20.7502 13.6478 20.6631 13.7737 20.5672C13.8576 20.5008 13.9269 20.4194 13.9778 20.3275C14.0286 20.2357 14.0599 20.1352 14.0699 20.0318C14.0799 19.9285 14.0685 19.8243 14.0361 19.7251C14.0038 19.626 13.9513 19.5338 13.8816 19.454C13.8118 19.3742 13.7263 19.3082 13.6297 19.2598C13.5332 19.2115 13.4276 19.1817 13.319 19.1722C13.2104 19.1626 13.1008 19.1735 12.9966 19.2043C12.8924 19.2351 12.7956 19.285 12.7117 19.3514C12.4122 19.5914 12.0331 19.7228 11.6415 19.7224C11.2014 19.7224 10.7793 19.5561 10.4681 19.26C10.1569 18.9639 9.98213 18.5623 9.98213 18.1435C9.9861 17.8463 10.0781 17.5563 10.2476 17.3066C10.4339 17.3377 10.6227 17.3536 10.8118 17.354C11.0318 17.354 11.2429 17.2708 11.3985 17.1228C11.5541 16.9747 11.6415 16.7739 11.6415 16.5645C11.6415 16.3552 11.5541 16.1544 11.3985 16.0063C11.2429 15.8582 11.0318 15.7751 10.8118 15.7751C10.6157 15.7769 10.4212 15.7421 10.2393 15.6724C9.94093 15.57 9.67963 15.3884 9.48639 15.149C9.29315 14.9097 9.17606 14.6226 9.14899 14.3219C9.12193 14.0211 9.18602 13.7193 9.33368 13.4522C9.48134 13.185 9.70637 12.9637 9.98213 12.8145C10.0997 12.9181 10.2275 13.0107 10.3638 13.0909C10.5552 13.1955 10.7825 13.2236 10.9957 13.1688C11.2088 13.114 11.3904 12.9809 11.5004 12.7988C11.6104 12.6166 11.6399 12.4003 11.5823 12.1975C11.5248 11.9946 11.3849 11.8219 11.1934 11.7172C11.0766 11.6559 10.9792 11.5659 10.9114 11.4566C10.8337 11.3303 10.7989 11.1841 10.8118 11.0382C10.8118 10.8288 10.8992 10.628 11.0548 10.48C11.2104 10.3319 11.4214 10.2488 11.6415 10.2488C11.6993 10.2415 11.7579 10.2415 11.8157 10.2488C11.8599 10.3755 11.9126 10.4994 11.9733 10.6198C12.0275 10.7103 12.1 10.7896 12.1866 10.8533C12.2732 10.917 12.3721 10.9638 12.4778 10.991C12.5834 11.0181 12.6937 11.0251 12.8022 11.0115C12.9107 10.998 13.0153 10.9641 13.11 10.9119C13.2939 10.8066 13.4278 10.6375 13.4835 10.4403C13.5392 10.243 13.5124 10.0329 13.4087 9.85401C13.339 9.73291 13.302 9.59731 13.3008 9.45928C13.3008 9.2499 13.3882 9.04909 13.5438 8.90104C13.6994 8.75298 13.9104 8.6698 14.1305 8.6698C14.3505 8.6698 14.5615 8.75298 14.7171 8.90104C14.8727 9.04909 14.9601 9.2499 14.9601 9.45928V12.2619ZM21.3403 15.6724C21.1584 15.7421 20.9639 15.7769 20.7678 15.7751C20.5478 15.7751 20.3368 15.8582 20.1812 16.0063C20.0256 16.1544 19.9382 16.3552 19.9382 16.5645C19.9382 16.7739 20.0256 16.9747 20.1812 17.1228C20.3368 17.2708 20.5478 17.354 20.7678 17.354C20.957 17.3536 21.1457 17.3377 21.332 17.3066C21.5015 17.5563 21.5935 17.8463 21.5975 18.1435C21.5975 18.5623 21.4227 18.9639 21.1115 19.26C20.8003 19.5561 20.3782 19.7224 19.9382 19.7224C19.5466 19.7228 19.1675 19.5914 18.8679 19.3514C18.6985 19.2174 18.48 19.1529 18.2606 19.1722C18.0412 19.1914 17.8389 19.2928 17.6981 19.454C17.5572 19.6152 17.4895 19.8231 17.5097 20.0318C17.5299 20.2406 17.6365 20.4332 17.8059 20.5672C17.9318 20.6631 18.0649 20.7502 18.2042 20.8277C18.1399 20.9677 18.0344 21.087 17.9004 21.171C17.7664 21.2551 17.6097 21.3004 17.4492 21.3014C17.2291 21.3014 17.0181 21.2182 16.8625 21.0702C16.7069 20.9221 16.6195 20.7213 16.6195 20.5119V18.933C16.6213 18.6098 16.7273 18.295 16.9232 18.031C17.119 17.767 17.3953 17.5665 17.7146 17.4566C17.9237 17.3896 18.0962 17.2464 18.1942 17.0583C18.2922 16.8703 18.3078 16.6529 18.2373 16.454C18.1669 16.2551 18.0164 16.091 17.8188 15.9977C17.6211 15.9044 17.3927 15.8896 17.1837 15.9566C16.9892 16.0273 16.8006 16.1117 16.6195 16.2093V14.9856C16.6213 14.6624 16.7273 14.3476 16.9232 14.0836C17.119 13.8196 17.3953 13.6191 17.7146 13.5093C17.8182 13.4761 17.9138 13.4239 17.9961 13.3555C18.0783 13.2872 18.1457 13.2041 18.1942 13.111C18.2428 13.0179 18.2715 12.9166 18.2789 12.8129C18.2863 12.7092 18.2722 12.6051 18.2373 12.5066C18.2025 12.4082 18.1476 12.3172 18.0757 12.2389C18.0039 12.1606 17.9166 12.0965 17.8188 12.0503C17.7209 12.0041 17.6145 11.9767 17.5055 11.9697C17.3965 11.9626 17.2872 11.9761 17.1837 12.0093C16.9892 12.0799 16.8006 12.1644 16.6195 12.2619V9.45928C16.6195 9.2499 16.7069 9.04909 16.8625 8.90104C17.0181 8.75298 17.2291 8.6698 17.4492 8.6698C17.6692 8.6698 17.8802 8.75298 18.0358 8.90104C18.1914 9.04909 18.2788 9.2499 18.2788 9.45928C18.2776 9.59731 18.2406 9.73291 18.171 9.85401C18.1158 9.94365 18.0797 10.0428 18.0648 10.1457C18.05 10.2486 18.0566 10.3533 18.0844 10.4538C18.1121 10.5543 18.1604 10.6486 18.2265 10.7312C18.2927 10.8139 18.3753 10.8834 18.4696 10.9356C18.5643 10.9878 18.669 11.0217 18.7775 11.0352C18.886 11.0488 18.9962 11.0418 19.1019 11.0146C19.2075 10.9875 19.3065 10.9407 19.393 10.877C19.4796 10.8133 19.5521 10.734 19.6063 10.6435C19.668 10.5154 19.7207 10.3835 19.7639 10.2488C19.8218 10.2415 19.8803 10.2415 19.9382 10.2488C20.1582 10.2488 20.3692 10.3319 20.5248 10.48C20.6804 10.628 20.7678 10.8288 20.7678 11.0382C20.7666 11.193 20.7175 11.344 20.6268 11.4724C20.5589 11.5749 20.4647 11.6591 20.353 11.7172C20.1616 11.8219 20.0217 11.9946 19.9641 12.1975C19.9065 12.4003 19.936 12.6166 20.046 12.7988C20.156 12.9809 20.3376 13.114 20.5508 13.1688C20.7639 13.2236 20.9912 13.1955 21.1827 13.0909C21.3315 13.014 21.4706 12.9213 21.5975 12.8145C21.8742 12.9611 22.101 13.1799 22.2513 13.4452C22.4015 13.7105 22.4688 14.0111 22.4452 14.3116C22.4217 14.6121 22.3082 14.8999 22.1183 15.141C21.9284 15.3822 21.67 15.5666 21.3735 15.6724H21.3403Z" fill="white"/>
</svg>
