<svg width="231" height="200" viewBox="0 0 231 200" fill="none" xmlns="http://www.w3.org/2000/svg">
<path d="M158.679 15.8148C158.673 15.7991 158.662 15.7856 158.648 15.7761C158.634 15.7666 158.617 15.7615 158.6 15.7615C158.583 15.7615 158.567 15.7666 158.553 15.7761C158.539 15.7856 158.528 15.7991 158.522 15.8148C158.522 16.5656 157.432 17.0257 157.735 17.8733C157.868 18.2365 158.364 18.4908 158.643 18.1276C158.653 18.1097 158.658 18.0897 158.659 18.0693C158.66 18.0489 158.656 18.0285 158.648 18.0098C158.64 17.991 158.627 17.9744 158.612 17.9613C158.596 17.9481 158.578 17.9387 158.558 17.9338H158.425C157.843 17.9338 157.843 17.5221 158.497 16.723C158.596 16.5963 158.665 16.4482 158.696 16.2905C158.728 16.1328 158.722 15.9699 158.679 15.8148ZM161.246 14.5919C161.319 14.7856 161.633 14.7251 161.67 14.5313C161.669 14.1226 161.616 13.7157 161.512 13.3205C161.512 13.2755 161.495 13.2324 161.463 13.2006C161.431 13.1688 161.388 13.151 161.343 13.151C161.298 13.151 161.255 13.1688 161.223 13.2006C161.191 13.2324 161.173 13.2755 161.173 13.3205C161.094 13.7439 161.119 14.1803 161.246 14.5919ZM155.725 13.6595C155.725 14.0349 155.725 14.7735 156.1 15.0036C156.118 15.0135 156.138 15.0191 156.158 15.02C156.179 15.021 156.199 15.0172 156.218 15.009C156.236 15.0008 156.253 14.9884 156.266 14.9728C156.279 14.9571 156.289 14.9387 156.294 14.9188C156.234 14.5094 156.145 14.1047 156.027 13.708C156.003 13.4779 155.725 13.4658 155.725 13.6595ZM154.562 12.1944C154.54 12.2313 154.533 12.2757 154.543 12.3177C154.553 12.3597 154.58 12.3959 154.617 12.4184C154.654 12.4409 154.698 12.4478 154.74 12.4376C154.782 12.4273 154.818 12.4009 154.841 12.3639C155.022 12.1218 156.051 11.4074 156.173 11.1531C156.188 11.134 156.198 11.1108 156.202 11.0863C156.205 11.0617 156.202 11.0367 156.192 11.0141C156.182 10.9914 156.165 10.9721 156.145 10.9581C156.124 10.9442 156.1 10.9362 156.076 10.9351C155.41 10.923 154.828 11.6737 154.562 12.1944ZM161.367 10.6082C161.972 10.6808 162.287 11.1652 162.578 11.6253C162.598 11.6605 162.63 11.6879 162.667 11.7032C162.705 11.7184 162.746 11.7207 162.785 11.7095C162.824 11.6984 162.859 11.6745 162.882 11.6417C162.906 11.6088 162.918 11.569 162.917 11.5284C162.917 10.7414 162.057 10.257 161.343 10.2449C161.125 10.2328 161.137 10.584 161.367 10.6082ZM173.476 51.547C176.079 51.3896 178.634 50.651 181.237 50.4209C181.443 50.4209 181.443 50.0698 181.237 50.094C178.61 50.3259 176.008 50.7919 173.463 51.4865L173.476 51.547ZM160.943 52.0677C161.137 52.0677 161.052 51.7407 160.859 51.765C158.158 52.1888 155.446 52.6731 152.758 53.1816C152.685 53.1816 152.758 53.3148 152.758 53.3148C155.507 52.9395 158.243 52.5399 160.943 52.0677ZM121.009 121.086L101.709 107.646L98.0518 113.736L123.758 130.737L145.287 90.8875L139.087 87.9815L121.009 121.086Z" fill="#5784EB"/>
<path d="M153.69 73.4386C153.363 72.6153 153.206 72.7242 152.334 72.5426C150.893 72.2278 149.44 71.9493 147.987 71.6587C143.483 70.7505 139.063 69.237 134.668 68.0261C130.223 66.8341 125.879 65.2956 121.675 63.4249C120.464 62.8921 119.35 62.3715 118.236 61.7418C117.57 61.3544 116.19 60.1435 115.451 60.1919C115.028 60.1919 115.233 60.1919 114.749 60.6036C113.841 61.4512 112.957 62.2867 112.001 63.0253C108.259 65.9401 104.277 68.5325 100.098 70.7748C93.6716 74.6708 86.9793 78.11 80.0704 81.067C80.0224 81.0801 79.9799 81.1084 79.9493 81.1477C79.9187 81.187 79.9018 81.2352 79.9009 81.2849C79.2809 88.4742 79.9534 95.7164 81.8867 102.669C83.6914 109.679 85.8618 116.59 88.3889 123.374C92.8933 135.688 99.6135 147.131 109.555 155.74C119.932 164.737 128.928 166.311 129.013 166.226C132.654 163.455 135.99 160.305 138.966 156.83C145.863 149.136 151.238 140.204 154.804 130.506C156.978 124.465 158.342 118.162 158.86 111.762C159.538 103.286 158.328 94.9191 156.862 86.5279C156.277 82.0638 155.213 77.6756 153.69 73.4386ZM156.887 121.873C155.247 129.847 152.139 137.447 147.721 144.285C136.593 160.68 128.977 165.754 128.856 165.839C117.611 162.028 107.795 154.881 100.715 145.351C97.3713 140.954 94.4979 136.218 92.1426 131.22C89.5468 125.392 87.3185 119.407 85.4708 113.3C83.4603 107.471 81.9017 101.496 80.809 95.4277C80.2785 92.2023 80.0314 88.9367 80.0704 85.6682C80.0704 84.8933 80.2157 81.5271 80.2036 81.5392C80.3247 81.3334 89.2244 77.5313 92.9781 75.4002C98.0757 72.4457 103.355 69.7092 108.247 66.3673C110.389 64.9507 112.414 63.3633 114.301 61.6207C114.979 60.9911 115.246 60.6642 116.166 61.0395C116.808 61.2938 120.61 63.4612 121.942 64.0061C127.291 66.2615 132.804 68.1073 138.433 69.5276C141.376 70.3631 144.318 71.3196 147.309 71.9493C149.203 72.2451 151.079 72.6494 152.927 73.1601C153.617 73.596 154.998 79.1054 155.349 80.5584C156.003 83.5613 156.487 86.6127 157.008 89.6156C158.836 100.416 159.333 111.108 156.887 121.897V121.873ZM73.435 23.6243C73.4168 23.6445 73.4046 23.6693 73.3998 23.6961C73.3951 23.7228 73.3979 23.7503 73.408 23.7755C73.4181 23.8008 73.435 23.8226 73.4569 23.8387C73.4788 23.8548 73.5047 23.8644 73.5318 23.8665C73.7533 23.8386 73.9593 23.7378 74.1171 23.58C74.275 23.4221 74.3758 23.2162 74.4036 22.9947C74.4036 22.7888 73.665 21.8807 73.5439 21.469C73.5365 21.4476 73.5226 21.4291 73.5042 21.416C73.4857 21.4029 73.4636 21.3958 73.441 21.3958C73.4184 21.3958 73.3963 21.4029 73.3779 21.416C73.3594 21.4291 73.3455 21.4476 73.3381 21.469C73.2291 21.8201 74.0525 22.813 74.0041 23.0794C73.9556 23.3458 73.6166 23.4427 73.435 23.6243ZM75.6629 19.7011C75.5477 20.0939 75.4986 20.5031 75.5176 20.912C75.5176 21.2631 76.0625 21.2631 76.0746 20.912C76.1295 20.5036 76.0837 20.0879 75.9414 19.7011C75.928 19.6758 75.908 19.6546 75.8835 19.6398C75.8589 19.625 75.8308 19.6171 75.8022 19.6171C75.7735 19.6171 75.7454 19.625 75.7209 19.6398C75.6963 19.6546 75.6763 19.6758 75.6629 19.7011ZM70.7348 19.6648C70.6223 20.0606 70.6223 20.4799 70.7348 20.8757C70.7348 21.1299 71.2191 21.0936 71.1949 20.8757C71.1707 20.6577 71.1101 20.1249 71.0617 19.7496C71.0729 19.7062 71.0665 19.6602 71.0438 19.6216C71.0211 19.583 70.984 19.555 70.9406 19.5437C70.8973 19.5325 70.8512 19.5389 70.8126 19.5616C70.774 19.5844 70.746 19.6215 70.7348 19.6648ZM69.7055 19.3258C69.8993 19.0715 70.9164 18.2723 71.0617 18.0423C71.0864 18.0183 71.1026 17.9869 71.1078 17.9529C71.113 17.9188 71.1069 17.884 71.0904 17.8538C71.0739 17.8236 71.048 17.7996 71.0165 17.7855C70.9851 17.7714 70.9499 17.7681 70.9164 17.7759C70.2705 18.0135 69.7298 18.4726 69.3907 19.0715C69.2575 19.2652 69.5602 19.4953 69.7055 19.3258ZM75.4207 17.9212C75.8609 18.1426 76.2684 18.4238 76.6316 18.7567C76.6553 18.7809 76.6857 18.7974 76.7189 18.8042C76.7522 18.8109 76.7866 18.8076 76.8179 18.7945C76.8492 18.7815 76.8758 18.7594 76.8944 18.7311C76.913 18.7027 76.9227 18.6695 76.9222 18.6356C76.9222 18.3208 75.7114 17.6185 75.3844 17.6427C75.3548 17.6549 75.33 17.6765 75.3139 17.7042C75.2978 17.7319 75.2914 17.7641 75.2955 17.7959C75.2997 17.8277 75.3142 17.8572 75.3368 17.8798C75.3595 17.9025 75.389 17.917 75.4207 17.9212ZM69.7782 25.5495H69.6692C69.6692 26.3245 71.3886 27.8986 73.6771 26.9178C73.7861 26.9178 73.6771 26.6877 73.5924 26.7241C72.9194 27.004 72.1698 27.0398 71.4733 26.8253C70.7767 26.6108 70.1771 26.1595 69.7782 25.5495ZM23.3906 127.83C19.3826 128.23 15.2779 127.6 11.2821 128.096C11.2821 128.096 11.1973 128.169 11.1973 128.205C10.8804 131.507 10.9454 134.835 11.391 138.122C11.3935 138.152 11.4034 138.181 11.4198 138.206C11.4362 138.231 11.4587 138.252 11.4851 138.267C11.5115 138.281 11.5411 138.289 11.5711 138.289C11.6012 138.289 11.6309 138.282 11.6574 138.268C15.5564 138.473 19.6369 138.34 23.548 138.159C23.6569 138.159 23.7054 137.916 23.7054 137.892C23.8226 134.585 23.758 131.275 23.5116 127.975C23.5133 127.958 23.5115 127.94 23.5063 127.923C23.5011 127.907 23.4926 127.891 23.4814 127.877C23.4701 127.864 23.4563 127.853 23.4407 127.845C23.4251 127.836 23.4081 127.832 23.3906 127.83ZM11.6453 131.329C11.6453 130.312 11.6453 129.295 11.5727 128.266C15.4054 128.463 19.2463 128.434 23.0757 128.181C22.9808 129.361 22.9525 130.546 22.991 131.729C19.2184 131.403 15.431 131.281 11.6453 131.366V131.329ZM11.8996 137.856C11.718 135.834 11.6938 133.824 11.6695 131.802C13.4616 131.802 15.3021 131.874 17.0457 131.923C16.9001 133.826 17.01 135.74 17.3726 137.614C15.5436 137.536 13.7113 137.629 11.8996 137.892V137.856ZM17.9538 137.65C17.9538 136.572 17.6753 132.722 17.5179 131.886C19.3221 131.886 22.9789 132.189 22.991 132.189C22.991 134.03 23.1726 135.882 23.2089 137.698C21.5258 137.819 19.7459 137.735 17.9902 137.686L17.9538 137.65Z" fill="#5784EB"/>
<path d="M229.235 135.943C228.985 134.276 228.163 132.748 226.91 131.62C225.397 130.47 223.387 130.663 221.607 130.724C218.943 130.809 213.458 131.329 213.458 131.317C212.538 128.738 211.726 126.099 210.661 123.592C209.929 121.458 208.402 119.689 206.399 118.652C204.437 117.804 195.234 118.458 190.972 118.846C194.181 108.238 194.351 93.5751 194.351 90.7417C194.795 90.4425 195.177 90.0601 195.477 89.6156C196.433 88.0294 195.767 85.5835 195.622 83.8762C195.21 79.2386 194.956 74.5284 194.302 69.9151C195.539 68.6566 196.621 67.2541 197.523 65.7377C200.453 60.8095 200.465 55.3244 199.109 49.8634C197.753 44.4025 193.927 40.1766 189.628 36.4714C185.358 32.5937 180.054 30.0403 174.359 29.1216C173.774 28.0981 173.097 27.1295 172.337 26.2277L171.272 26.8452C171.272 25.2105 170.594 18.2118 170.594 18.2118C171.587 17.9455 173.548 15.0757 173.851 12.9689C173.996 10.9161 173.637 8.85902 172.805 6.9766C171.974 5.09419 170.695 3.44347 169.08 2.16808C164.6 -1.46446 155.761 0.242835 153.811 1.72007C153.276 2.14275 152.657 2.44754 151.996 2.61448C151.334 2.78141 150.645 2.80672 149.973 2.68875C149.973 2.68875 151.595 4.31129 150.603 4.614C149.61 4.91671 148.932 3.26996 148.932 3.26996C148.702 6.56347 150.021 7.38685 150.021 7.38685C154.368 12.0607 157.65 8.3192 157.65 8.3192C157.65 8.3192 158.098 6.86618 162.772 7.91962C163.374 8.0055 163.95 8.21775 164.465 8.54241C164.979 8.86707 165.418 9.29681 165.754 9.80341C166.091 10.31 166.316 10.882 166.415 11.4818C166.515 12.0816 166.486 12.6957 166.332 13.2837L166.925 13.5259C167.148 13.2016 167.399 12.8977 167.676 12.6177C170.315 10.7893 170.993 13.5622 170.993 13.5622C171.526 15.8144 168.753 16.4682 168.753 16.4682C168.826 19.5922 168.257 20.1008 168.257 20.1008C166.005 22.801 163.716 19.8707 163.716 19.8707C163.211 19.2883 162.573 18.835 161.857 18.5485C161.141 18.2621 160.367 18.1508 159.599 18.2239C156.742 18.345 157.177 19.2532 155.967 20.1371C155.204 20.6941 154.429 20.0644 153.957 19.5438C153.957 18.5145 153.545 14.4824 153.315 13.4895V9.96595C152.467 9.71818 151.693 9.26481 151.063 8.64613C149.852 12.2787 152.431 13.3927 153.145 13.6469C153.23 14.7488 152.831 23.14 154.356 26.2882C154.764 27.1636 155.382 27.9245 156.156 28.5033C156.929 29.0822 157.833 29.4609 158.788 29.6059C158.655 30.3203 158.522 31.507 158.497 31.8339C155.519 32.2698 153.109 34.1829 150.796 35.9871C148.021 38.1074 145.448 40.4785 143.107 43.0706C138.891 47.6459 136.149 53.3837 135.237 59.5381L131.084 58.3273C131.144 58.0611 131.172 57.7888 131.168 57.516C131.165 57.0288 131.014 56.554 130.736 56.1537C130.459 55.7534 130.067 55.4462 129.611 55.2722C129.156 55.0983 128.659 55.0657 128.185 55.1787C127.711 55.2917 127.282 55.545 126.955 55.9056C126.716 56.2367 126.543 56.6109 126.446 57.0075C126.446 57.0075 119.496 53.9319 116.021 52.4426C115.283 51.9649 114.386 51.7994 113.526 51.9824C112.196 52.6942 111.016 53.6563 110.051 54.8158V54.7432C108.84 53.2538 106.177 53.3749 105.789 55.5423C105.714 56.1748 105.814 56.8159 106.08 57.3949C105.474 57.8429 104.869 58.3152 104.167 58.7753C102.471 54.5858 100.861 50.2146 98.1123 46.6668C95.8281 43.6292 93.0729 40.9762 89.9511 38.8084C85.6688 35.7574 80.5072 34.1885 75.2514 34.3404L74.9366 33.5775C74.9366 33.0811 74.8397 32.5846 74.7792 32.1003C78.7145 32.4272 80.7608 26.5062 80.7608 26.5062C80.8994 27.529 80.7957 28.57 80.4581 29.5454C80.4581 29.5454 84.4539 23.806 82.0927 14.2766C79.7316 4.74719 71.1951 6.74509 71.1951 6.74509C61.0603 0.872476 55.7931 11.3948 55.7931 11.3948C49.6178 26.3366 60.6365 32.5846 60.6365 32.5846C59.5709 31.7855 59.91 29.9934 59.91 29.9934C60.4627 30.7744 61.1862 31.4191 62.0255 31.8785C62.8647 32.338 63.7976 32.6002 64.7534 32.6452C64.7534 33.0205 64.6202 33.4322 64.5839 33.856L64.3296 34.752C53.7831 38.4693 44.4959 45.3106 40.8754 56.2809C39.156 61.4755 39.047 66.8759 41.6625 71.804C43.8598 75.8038 47.4824 78.8298 51.8094 80.28C51.757 80.9892 51.8685 81.701 52.1351 82.3602C52.4018 83.0195 52.8165 83.6086 53.3472 84.082C52.5238 84.4574 50.4048 85.9831 49.194 92.0373C48.6975 94.5317 47.7773 98.8907 46.7723 103.625C41.4808 99.484 33.7072 93.1634 33.5861 93.2603C22.2283 102.402 0.0576938 121.679 0.0576938 121.703C0.0335612 121.723 0.0158416 121.749 0.00678407 121.779C-0.00227346 121.809 -0.00226115 121.841 0.00681987 121.871C0.0159009 121.901 0.0336415 121.927 0.0577896 121.947C0.0819378 121.967 0.111405 121.979 0.142453 121.982C1.97084 122.139 3.775 122.248 5.65182 122.309C5.65182 133.557 6.59628 156.212 6.64471 156.212H2.41885C2.33419 158.112 2.40709 160.016 2.6368 161.903C10.9917 161.903 42.4616 161.685 53.662 161.467C54.0252 166.807 54.4733 173.225 54.4733 173.225C53.7346 173.515 50.5622 175.404 49.5693 175.84C48.2374 176.421 47.1476 177.136 47.3171 178.746C47.3738 178.81 47.4442 178.859 47.523 178.892C51.8872 179.219 56.2745 179.048 60.6002 178.383C60.696 178.352 60.7776 178.287 60.8302 178.201C61.1753 176.978 61.1753 175.683 60.8302 174.46L66.2427 151.938C67.0419 148.754 69.9842 136.052 70.7107 132.916C73.7619 132.897 76.8098 132.711 79.8406 132.359C81.0514 136.064 84.4418 150.231 85.7979 153.258C87.1541 156.285 87.2994 157.532 87.3236 157.544C90.7745 158.513 93.6321 159.736 97.7732 156.333C97.8102 156.296 97.8603 156.276 97.9125 156.276C97.9647 156.276 98.0148 156.296 98.0517 156.333C98.0887 156.37 98.1094 156.42 98.1094 156.473C98.1094 156.525 98.0887 156.575 98.0517 156.612C95.5574 159.288 90.2902 159.639 87.2873 157.629L92.5545 173.116C92.2238 174.664 92.2238 176.265 92.5545 177.814C92.5545 177.911 100.473 177.814 104.36 177.705C104.481 177.705 104.578 177.463 104.578 177.439C104.613 176.837 104.467 176.238 104.158 175.72C103.85 175.202 103.393 174.788 102.847 174.532C102.144 174.133 98.9841 172.619 98.1365 172.196V154.227C99.6482 156.217 101.312 158.087 103.113 159.821C107.254 163.582 111.71 166.981 116.432 169.98C120.67 172.825 125.138 175.646 130.067 177.112C130.163 177.112 143.095 168.805 149.961 158.573V163.235C150.507 163.798 151.185 164.214 151.935 164.446C152.032 165.451 152.185 166.449 152.395 167.437C150.627 168.648 147.902 170.488 147.442 172.692C147.385 172.895 147.37 173.107 147.399 173.315C147.429 173.524 147.501 173.724 147.612 173.903C146.982 176.918 153.775 176.325 155.228 176.131C157.117 175.877 163.704 175.501 162.59 172.123C162.59 172.123 162.941 167.885 161.755 167.146C161.863 166.169 161.863 165.182 161.755 164.204C163.45 163.841 164.636 163.477 164.636 163.477L166.138 125.941C168.935 140.35 180.317 164.591 180.317 164.591C181.191 164.719 182.073 164.783 182.956 164.785C183.299 165.622 183.703 166.431 184.167 167.207C183.235 168.091 178.464 172.644 181.031 174.206C181.588 177.184 186.274 175.525 188.006 174.787C189.095 174.327 195.707 171.154 193.612 169.423C193.612 169.423 192.05 165.657 191.517 165.451C191.413 164.46 191.194 163.485 190.863 162.545C191.488 162.153 192.069 161.694 192.595 161.177C192.595 161.177 191.384 154.19 190.173 147.167C196.519 147.35 202.868 146.973 209.147 146.041C209.232 146.041 209.292 145.92 209.305 145.835C209.305 144.213 209.414 142.493 210.673 141.307C211.8 140.388 213.149 139.783 214.584 139.551C218.41 138.728 220.057 141.295 221.026 144.528C221.026 144.612 227.019 144.249 229.925 144.358C230.083 144.358 230.143 144.019 230.143 143.983C230.126 141.278 229.822 138.583 229.235 135.943ZM158.618 7.58058C156.996 8.51294 154.925 7.12046 154.429 5.53425C154.429 5.44949 154.526 5.38894 154.574 5.4737C154.962 6.176 156.512 7.96805 158.522 7.22943C158.618 7.16889 158.752 7.49582 158.618 7.58058ZM187.521 35.309C191.759 38.5299 196.215 42.6468 198.056 47.7566C199.896 52.8663 200.405 59.2233 197.874 64.2725C195.426 68.8365 191.558 72.4792 186.855 74.6495C181.472 77.1257 175.611 78.3905 169.686 78.3547C169.654 78.3426 169.62 78.3426 169.589 78.3547C168.457 76.0567 167.128 73.8609 165.617 71.7919C172.412 67.454 179.433 63.4809 186.65 59.8893C186.678 59.8722 186.7 59.8467 186.713 59.8163C186.726 59.7858 186.729 59.7521 186.722 59.7198C185.983 57.2274 185.492 54.6682 185.257 52.0793C185.257 51.9703 185.075 51.9582 185.075 52.0793C185.132 54.149 185.408 56.2069 185.899 58.2183C186.141 59.2596 186.722 59.4291 185.826 59.9498C184.083 60.858 172.713 66.9001 168.874 69.2491C168.705 67.1907 168.136 57.625 168.16 57.6008C169.819 54.8279 176.103 43.3975 177.847 40.6489C177.86 40.6354 177.871 40.6193 177.878 40.6017C177.886 40.584 177.889 40.5651 177.889 40.546C177.889 40.5268 177.886 40.5079 177.878 40.4902C177.871 40.4726 177.86 40.4565 177.847 40.443C177.112 39.2467 176.23 38.1482 175.219 37.1737C176.568 36.1225 178.03 35.225 179.578 34.4978C179.711 34.4978 179.869 34.3888 179.772 34.2435C178.781 32.6492 177.62 31.1673 176.309 29.8239C180.375 30.8555 184.181 32.7236 187.485 35.309H187.521ZM162.82 77.3739C160.532 79.4203 160.398 78.2457 160.338 77.8704C161.187 77.419 161.973 76.8571 162.675 76.1994C162.675 76.1994 162.602 76.0057 162.542 76.0541C162.045 76.3931 159.272 78.7301 159.272 77.3376C160.174 76.2195 161.215 75.2224 162.372 74.371C162.203 74.0441 161.597 74.371 161.44 72.3489C162.203 72.9267 163.134 73.2373 164.091 73.2328C164.665 73.2623 165.235 73.1189 165.726 72.8211C166.168 73.741 166.669 74.6309 167.228 75.485C166.465 76.2182 165.656 76.9018 164.806 77.5313C164.043 78.0641 162.384 79.3839 161.415 78.7422C161.974 78.3737 162.508 77.9692 163.014 77.5313C163.038 77.4587 162.856 77.3134 162.784 77.3739H162.82ZM175.994 29.7512C176.442 30.4898 178.876 33.4928 179.493 34.3404C177.819 34.8843 176.316 35.8569 175.134 37.1616L177.677 40.4915C174.456 46.025 170.666 51.3891 168.148 57.3344C169.029 48.0007 170.946 38.7941 173.863 29.8844L174.299 29.4243L175.994 29.7512ZM172.277 26.5062C172.773 27.4506 173.488 28.2498 174.008 29.2185C172.386 30.9136 170.594 32.3909 168.886 34.0619C168.246 32.5905 167.433 31.2004 166.465 29.9207C168.529 29.0244 170.48 27.8863 172.277 26.5304V26.5062ZM165.52 29.2063C169.334 28.3709 170.291 23.5033 170.533 20.5246C170.533 21.13 170.775 25.368 170.957 26.8936C170.95 26.9215 170.95 26.9505 170.957 26.9784L166.247 29.7512C165.725 30.7076 165.28 31.7036 164.915 32.7299C164.507 31.6509 164.021 30.6028 163.462 29.5938C164.152 29.5091 164.818 29.388 165.52 29.2306V29.2063ZM164.757 33.2748C164.753 33.3002 164.753 33.3264 164.758 33.3517C164.764 33.377 164.774 33.4011 164.788 33.4224C164.803 33.4438 164.822 33.4621 164.843 33.4762C164.865 33.4904 164.889 33.5001 164.915 33.5049C164.94 33.5096 164.966 33.5093 164.992 33.504C165.017 33.4987 165.041 33.4884 165.062 33.4738C165.084 33.4592 165.102 33.4405 165.116 33.4188C165.13 33.3971 165.14 33.3729 165.145 33.3475C165.508 32.2456 166.041 31.18 166.356 30.0782C167.029 31.5558 167.839 32.9667 168.777 34.2919C170.45 33.0897 172.025 31.7577 173.488 30.3082C169.504 39.1111 168.002 51.7039 167.772 55.845C166.804 52.2125 162.481 37.4159 160.883 33.8197C161.29 34.0738 161.749 34.2313 162.227 34.2798C162.529 33.7591 163.099 30.5625 163.438 29.6786C163.462 29.8602 164.479 32.5846 164.757 33.299V33.2748ZM159.151 22.7888C159.414 22.8664 159.69 22.8881 159.961 22.8525C160.233 22.8169 160.494 22.7249 160.728 22.5823C160.962 22.4398 161.163 22.2498 161.319 22.0247C161.475 21.7996 161.582 21.5443 161.633 21.2753C161.633 21.1179 161.96 21.2026 161.936 21.36C161.585 23.5759 159.514 23.4064 159.115 22.8736C159.091 22.8615 159.115 22.8131 159.151 22.8131V22.7888ZM159.079 29.6423C160.456 29.8411 161.854 29.8411 163.232 29.6423C162.678 31.0282 162.24 32.4579 161.924 33.9165C161.561 33.6744 159.43 32.4393 158.776 32.0034C158.788 31.9792 159.03 30.5141 159.079 29.6665V29.6423ZM158.618 32.1729C159.186 32.7048 159.812 33.1719 160.483 33.5654C161.537 37.5975 166.537 52.8663 167.518 56.5715C166.005 54.4162 157.928 45.6739 155.906 43.0827C156.491 41.7799 156.992 40.4412 157.408 39.0748C156.348 38.6637 155.248 38.3634 154.126 38.1787C155.341 36.4494 156.307 34.5582 156.996 32.5604C157.492 32.3909 158.618 32.1729 158.618 32.1729ZM135.503 59.5623C136.573 53.5135 139.292 47.8777 143.362 43.2764C145.314 41.0814 147.448 39.056 149.743 37.2222C151.797 35.3196 154.154 33.7727 156.717 32.6452C155.664 34.4493 154.659 36.6046 153.509 38.3725C153.412 38.5299 156.015 39.0263 157.056 39.3896C156.826 39.7771 155.785 42.4651 155.482 43.1917C155.482 43.2764 165.896 54.9369 167.797 57.6129C167.639 59.4776 168.717 69.3823 168.729 69.3944C167.603 70.0846 166.404 70.8717 165.327 71.6224C165.23 71.6224 165.593 72.2642 165.702 72.4942C165.253 72.7178 164.762 72.8417 164.261 72.8575C164.394 70.2784 164.164 67.2876 161.96 65.5924C160.993 64.8968 159.854 64.4781 158.667 64.3815C156.742 64.1394 154.816 64.0304 152.891 63.7519C152.068 63.6308 151.232 63.4855 150.409 63.3281V63.2554C149.74 59.5536 149.48 55.7895 149.634 52.0309C149.634 51.934 149.476 51.8977 149.452 52.0309C149.006 55.7841 149.186 59.5854 149.985 63.2797C145.057 62.3473 140.298 60.9427 135.455 59.5502L135.503 59.5623ZM126.725 57.1406C126.839 56.5681 127.163 56.0587 127.633 55.7118C128 55.4765 128.432 55.3637 128.867 55.3898C129.303 55.4159 129.718 55.5796 130.054 55.8571C130.423 56.173 130.689 56.5924 130.816 57.061C130.943 57.5295 130.927 58.0256 130.769 58.4847C130.599 59.0538 129.691 60.7369 128.965 59.3928C129.008 59.2947 129.045 59.1935 129.074 59.0901C129.192 58.5667 129.281 58.0372 129.34 57.5039C129.195 57.9882 129.11 58.5089 128.94 58.9811C128.903 59.131 128.834 59.2711 128.738 59.3922C128.642 59.5133 128.521 59.6126 128.383 59.6834C127.996 59.8166 127.705 59.5139 127.56 59.187C127.794 58.4608 127.936 57.7083 127.984 56.9469C127.914 57.7455 127.701 58.5249 127.354 59.2475C127.112 59.6834 126.652 59.7319 126.495 59.2475C126.465 59.0834 126.465 58.9152 126.495 58.7511C126.511 58.2034 126.589 57.6593 126.725 57.1285V57.1406ZM109.555 54.7189C109.664 54.8279 109.761 54.949 109.87 55.0822C109.871 55.1006 109.877 55.1184 109.888 55.1334C109.898 55.1484 109.913 55.1601 109.93 55.167C110.183 55.4907 110.38 55.8551 110.511 56.2446C110.669 56.729 110.996 57.9277 109.991 57.4555C109.687 57.0265 109.351 56.6217 108.986 56.2446C108.913 56.2446 108.986 56.2446 108.986 56.2446C109.204 56.6321 110.935 59.0175 108.986 58.4847C108.8 57.923 108.503 57.4043 108.114 56.959C108.092 56.9439 108.067 56.9362 108.04 56.937C108.014 56.9378 107.989 56.947 107.968 56.9634C107.948 56.9798 107.933 57.0024 107.927 57.0278C107.92 57.0532 107.922 57.0801 107.932 57.1043C108.174 57.6613 109.531 59.744 107.932 59.187C107.022 58.6499 106.354 57.7825 106.068 56.7653C105.882 56.3104 105.866 55.8039 106.023 55.3383C106.179 54.8727 106.499 54.479 106.922 54.2292C107.345 53.9795 107.844 53.8903 108.327 53.978C108.811 54.0657 109.246 54.3244 109.555 54.7068V54.7189ZM62.5375 27.935C63.1214 27.9332 63.6995 28.0503 64.2366 28.2793C64.7737 28.5083 65.2585 28.8443 65.6615 29.2669C65.4436 27.5233 62.8039 25.041 62.8039 25.041C59.7162 25.1137 60.3822 22.0623 60.3822 22.0623C60.5216 21.7408 60.7366 21.4576 61.0088 21.2368C61.281 21.016 61.6024 20.8641 61.9459 20.794C62.2893 20.7238 62.6445 20.7376 62.9815 20.834C63.3185 20.9305 63.6272 21.1068 63.8816 21.3479C63.8816 21.7233 64.5354 23.4427 65.4799 23.5154C66.4243 23.588 66.0853 24.5809 66.0853 24.5809C66.0853 24.5809 66.7876 23.6728 66.0853 23.1642C65.383 22.6557 65.3225 21.3358 65.3225 21.3358C69.2941 20.9726 72.0911 11.419 72.0911 11.419C73.1082 16.7104 78.8477 16.8073 78.8477 16.8073C78.8571 19.9478 78.6711 23.086 78.2907 26.2034C78.1258 27.1475 77.6502 28.0094 76.9394 28.6522C76.2286 29.295 75.3233 29.6818 74.3675 29.7512C74.3675 29.7512 74.3675 32.9237 74.537 33.8076C73.2177 34.9461 71.5331 35.5725 69.7905 35.5725C68.0479 35.5725 66.3633 34.9461 65.044 33.8076V32.5967C65.6059 32.6358 66.1705 32.6115 66.7271 32.5241C63.3367 31.8581 62.5375 27.935 62.5375 27.935ZM64.4022 35.0184C65.6131 37.2706 72.4786 38.651 75.2999 34.5583C76.6346 34.5669 77.9666 34.6803 79.2836 34.8973C78.3512 44.4994 64.1479 44.8384 60.7697 36.6167C61.9442 36.0598 63.1672 35.5391 64.4022 35.0184ZM43.1397 73.3418C36.6617 63.9456 41.4566 51.2922 49.0244 44.0514C52.3621 40.9974 56.1998 38.5399 60.3701 36.7863C61.7505 41.1817 67.2356 43.3854 71.5583 42.8405C73.612 42.6474 75.5384 41.7601 77.0199 40.3248C78.5013 38.8896 79.4493 36.9922 79.7074 34.9458C83.1723 35.5508 86.4721 36.8748 89.3942 38.8326C92.4694 40.9081 95.192 43.4631 97.4584 46.4004C100.389 50.1177 102.048 54.6221 103.791 58.9932C100.873 61.0154 97.4463 63.1343 93.9348 65.1201C93.3294 64.66 91.9491 63.4371 91.6706 63.1828C91.7628 59.5959 90.9991 56.0387 89.4426 52.8058H89.3215C91.8158 58.969 91.1257 64.1272 91.2346 66.5489C84.8414 69.9878 78.666 72.7364 75.4936 73.4145C75.4936 73.4145 75.4936 73.2328 75.3967 73.2086C70.3233 71.5255 55.1998 66.1373 55.1756 66.1373C55.4886 64.1113 55.6948 62.0702 55.7931 60.0225C55.7931 60.0225 55.6962 60.0225 55.6962 60.0951C55.1756 62.093 55.1029 64.2604 54.776 66.3068C54.7698 66.3438 54.7745 66.3818 54.7896 66.4162C54.8046 66.4506 54.8294 66.4799 54.8607 66.5005C61.4478 69.346 68.398 71.3439 75.2272 73.5113C75.3876 75.8204 75.282 78.1403 74.9124 80.4253C64.1722 81.4061 50.2837 83.6946 43.1397 73.3418ZM93.5595 65.3381C92.8814 65.7256 92.1912 66.1009 91.5131 66.4642C91.5858 65.556 91.6342 64.5995 91.6463 63.6187C92.2222 64.2572 92.8634 64.8335 93.5595 65.3381ZM75.6268 75.2307C76.029 75.4012 76.4614 75.4891 76.8982 75.4891C77.335 75.4891 77.7674 75.4012 78.1696 75.2307C79.0656 74.7585 79.5136 73.7777 80.3249 73.1844C80.3781 73.8463 80.1982 74.5059 79.8163 75.0491C79.7316 75.1581 79.8163 75.2913 79.9859 75.2792C80.8092 75.4002 82.5165 75.0733 83.1098 75.5577C83.9453 76.2236 80.9666 76.5142 80.2038 76.6111C80.0827 76.6111 80.119 76.8048 80.2038 76.8169C81.1457 76.8113 82.081 76.6602 82.9767 76.3689C83.6911 78.1852 80.676 77.7735 80.1069 77.9794C80.0827 77.9873 80.0616 78.0027 80.0467 78.0234C80.0317 78.044 80.0237 78.0689 80.0237 78.0944C80.0237 78.1199 80.0317 78.1447 80.0467 78.1654C80.0616 78.1861 80.0827 78.2015 80.1069 78.2094C80.8126 78.2577 81.5215 78.2088 82.2138 78.0641C82.8556 79.5777 76.9345 80.7643 75.4452 78.7543C75.6101 77.5875 75.6709 76.4083 75.6268 75.2307ZM57.1371 97.5588C57.1371 97.4861 57.2945 97.5588 57.2824 97.5588C56.9797 102.16 54.0737 120.88 53.1898 125.614C53.1898 125.747 52.9718 125.687 52.996 125.614C53.6257 120.94 56.2169 102.208 57.1371 97.5588ZM47.5109 128.23C48.776 128.864 50.078 129.422 51.4098 129.901C51.4098 130.252 51.4825 130.736 51.5188 131.281C48.5159 130.99 45.6583 131.584 42.6675 131.378C42.6675 130.3 42.5827 128.314 42.5827 128.314C43.394 128.29 45.6825 128.242 47.5109 128.266V128.23ZM48.3948 131.717H51.4582C51.5672 133.182 51.6883 135.192 51.8094 137.347C50.7346 137.196 49.6468 137.159 48.5643 137.238C48.6225 135.409 48.578 133.578 48.4311 131.753L48.3948 131.717ZM48.0921 137.226C47.9589 137.226 44.4595 137.226 42.8733 137.299C42.8733 135.846 42.6675 132.165 42.6675 131.777C44.4575 131.898 46.2536 131.898 48.0437 131.777C47.8287 133.601 47.845 135.443 48.0921 137.263V137.226ZM1.01426 121.679C11.9119 112.162 22.4705 103.129 33.6103 93.8294C37.7393 97.4619 42.2921 100.707 46.7238 104.013C45.3556 110.37 43.8541 117.332 42.9823 121.34C31.8304 121.534 7.83135 121.776 1.01426 121.679ZM3.07271 161.552C3.14977 159.859 3.04422 158.162 2.75789 156.491C6.81423 156.975 43.2729 156.563 53.2745 156.406C53.3472 157.617 53.4683 159.252 53.5893 161.044C42.3769 161.044 11.3307 161.334 3.07271 161.552ZM30.7769 145.254C32.9926 145.081 35.2172 145.052 37.4366 145.169C37.4366 145.169 37.4366 154.227 37.6303 156.188L31.007 156.297C30.9101 152.507 31.007 149.02 30.7769 145.254ZM60.4912 177.947C53.7589 179.097 49.7752 178.431 47.6562 178.565C47.5714 178.02 48.4674 176.773 48.867 176.47C49.2666 176.167 54.4854 173.673 54.4854 173.673C56.12 176.639 59.4983 175.211 60.5396 174.69C60.8128 175.775 60.8128 176.911 60.5396 177.995L60.4912 177.947ZM64.7413 156.672C60.5759 158.501 56.4469 157.351 53.1413 154.384L53.2382 155.885L38.0784 156.128C38.2574 152.347 38.1481 148.558 37.7514 144.794C37.7514 144.794 32.6174 144.104 30.3289 144.709C30.2563 144.709 30.3895 152.459 30.4863 156.249L7.4802 156.164C7.4802 156.164 7.06851 133.509 6.42676 122.26C11.585 122.418 32.3995 122.018 42.9218 121.8L42.28 124.742C43.5897 125.96 45.0556 126.999 46.6391 127.83C45.2082 127.679 43.7621 127.778 42.3648 128.121C42.357 128.148 42.357 128.178 42.3648 128.205C42.1106 131.351 42.1593 134.514 42.5101 137.65C42.5101 137.65 42.5948 137.795 42.6554 137.795C44.1568 137.892 50.199 137.614 51.9668 137.868C52.2453 142.869 52.5722 148.523 52.887 150.461C52.887 150.461 53.2382 154.251 53.2987 154.287C55.006 155.498 59.2198 158.876 64.6807 156.467C64.7897 156.382 64.8987 156.66 64.7413 156.721V156.672ZM65.7705 151.974C60.5396 153.258 54.7275 151.03 53.2745 150.376C52.7902 146.84 52.4996 133.194 51.761 130.046C57.7097 132.039 63.9533 133.009 70.2264 132.916C69.2819 135.943 66.4364 148.741 65.7705 152.047V151.974ZM63.9784 110.805C63.9869 110.778 64.0038 110.755 64.0267 110.738C64.0495 110.721 64.0772 110.712 64.1056 110.712C64.134 110.712 64.1616 110.721 64.1845 110.738C64.2073 110.755 64.2242 110.778 64.2327 110.805C64.2327 114.971 64.3659 119.148 64.2327 123.314C64.2327 123.435 64.039 123.435 64.0269 123.314C63.8452 119.209 63.9663 115.031 63.9784 110.878V110.805ZM73.2172 84.9902C70.5049 85.1355 57.4762 85.7409 53.7346 83.9004H53.6741C52.721 82.9193 52.1462 81.6324 52.0516 80.2679C52.5601 80.4495 53.0929 80.6069 53.6136 80.7522C60.14 82.4595 66.9329 81.4545 73.5078 80.8612C73.3219 82.2501 73.2249 83.6494 73.2172 85.0507V84.9902ZM86.2581 153.391C85.0472 149.916 81.5115 135.616 80.0464 132.262C81.2572 132.116 83.8364 131.668 84.7445 131.511C85.9553 134.042 87.4084 136.488 88.7403 138.946C90.0722 141.404 91.4889 144.043 92.954 146.526C94.1649 148.523 95.3757 150.485 96.7198 152.374C92.6634 155.219 87.8564 153.984 86.2581 153.452V153.391ZM103.827 177.16C99.9891 177.245 96.9378 177.547 92.9298 177.33C92.6452 176.004 92.6001 174.639 92.7966 173.297C96.5503 176.409 98.0517 172.365 98.0517 172.365C98.8872 173.14 103.791 175.404 103.827 177.221V177.16ZM152.116 164.446C154.841 165.245 158.679 164.725 161.367 164.168C161.246 165.173 162.033 168.793 157.589 169.302C152.043 170.016 152.358 165.451 152.116 164.507V164.446ZM155.846 175.477C154.308 175.731 148.205 176.688 147.781 174.109C148.241 174.417 148.778 174.589 149.331 174.605C151.438 174.775 161.573 172.934 162.142 172.256C162.784 174.932 157.504 175.271 155.846 175.537V175.477ZM162.142 171.99C161.5 172.583 153.17 174.06 151.45 174.193C149.731 174.327 146.704 174.593 147.975 171.965C148.242 171.438 148.58 170.949 148.98 170.512C149.48 171.008 150.01 171.473 150.566 171.905C150.712 172.002 150.857 171.832 150.784 171.687C150.404 171.075 149.858 170.584 149.21 170.27C149.561 169.907 149.961 169.544 150.36 169.205C150.603 169.398 151.462 170.343 151.729 170.5C151.756 170.516 151.788 170.524 151.819 170.521C151.851 170.519 151.881 170.508 151.906 170.488C151.93 170.468 151.949 170.442 151.958 170.412C151.968 170.381 151.968 170.349 151.959 170.319C151.69 169.731 151.229 169.252 150.651 168.963L151.535 168.248C152.177 168.66 152.746 169.168 153.375 169.604C153.46 169.604 153.569 169.604 153.509 169.483C153.031 168.886 152.428 168.402 151.741 168.067C151.981 167.871 152.231 167.689 152.492 167.522C153.027 168.221 153.718 168.786 154.51 169.173C155.302 169.559 156.172 169.756 157.053 169.748C157.934 169.74 158.801 169.526 159.586 169.125C160.37 168.724 161.05 168.146 161.573 167.437C162.445 168.357 162.142 171.263 162.142 172.05V171.99ZM164.261 123.301C163.341 134.889 149.852 157.375 149.852 157.375V157.665C142.877 167.788 133.614 173.842 130.018 176.736C124.957 175.223 120.404 172.28 116.057 169.35C111.379 166.355 106.982 162.942 102.919 159.155C99.0534 155.202 95.7381 150.747 93.063 145.908C90.2539 141.065 87.8806 136.003 84.9503 131.269C83.7395 128.678 74.2101 106.858 73.7137 85.0265C73.8243 83.657 73.8445 82.2817 73.7742 80.9096L74.9124 80.8127C74.9876 80.765 75.0434 80.692 75.0698 80.6069C75.2061 80.1135 75.3112 79.612 75.3846 79.1055C76.0306 79.5564 76.769 79.8577 77.5461 79.9876C78.3231 80.1174 79.1193 80.0726 79.8769 79.8562C80.7608 79.6624 82.9403 79.2507 82.4923 77.9067C82.6298 77.855 82.76 77.7859 82.8798 77.7009C83.0062 77.6363 83.1149 77.5418 83.1965 77.4257C83.2781 77.3095 83.3301 77.1752 83.348 77.0344C83.3659 76.8936 83.3492 76.7506 83.2992 76.6177C83.2493 76.4849 83.1676 76.3662 83.0614 76.2721C83.4973 76.0541 83.6911 75.7514 83.352 75.3276C83.1703 75.1765 82.9591 75.065 82.7318 75.0004C82.5045 74.9358 82.2662 74.9194 82.0322 74.9522C81.3843 74.9439 80.7367 74.9844 80.0948 75.0733C80.5307 74.4679 80.7608 72.3852 80.1675 72.7485C79.6244 73.1686 79.1505 73.6711 78.7629 74.2378C77.8548 75.2792 76.8013 75.1702 75.5663 74.9764C75.5663 74.5527 75.5663 74.1289 75.4573 73.7656C77.8949 73.4568 80.2595 72.7232 82.4439 71.5982C85.2773 70.3873 99.0204 64.0546 106.189 57.8066C106.376 58.2301 106.65 58.61 106.991 58.9226C107.333 59.2352 107.736 59.4737 108.174 59.6229C108.974 59.8045 109.119 59.3444 108.998 58.7632C109.084 58.8256 109.184 58.8665 109.29 58.8823C109.395 58.8981 109.502 58.8884 109.603 58.854C109.704 58.8196 109.795 58.7615 109.869 58.6846C109.943 58.6077 109.997 58.5142 110.027 58.412C110.118 58.1617 110.118 57.8875 110.027 57.6371C110.463 57.8671 110.778 57.9035 110.911 57.3828C110.955 56.9606 110.914 56.5338 110.789 56.128C110.664 55.7222 110.458 55.3459 110.184 55.0217C111.044 54.3436 111.843 53.605 112.691 52.9148C114.422 51.5344 116.541 53.1448 118.273 53.8835C120.913 55.0217 126.313 57.3344 126.349 57.2859C126.272 57.609 126.216 57.9366 126.18 58.2667C126.18 58.7148 125.925 59.5744 126.507 59.8045C126.882 59.9498 127.161 59.7319 127.354 59.3686C127.389 59.4892 127.452 59.6 127.537 59.6922C127.622 59.7845 127.728 59.8557 127.845 59.9003C127.962 59.9449 128.089 59.9617 128.214 59.9493C128.338 59.9368 128.459 59.8956 128.565 59.8287C128.657 59.7692 128.739 59.6957 128.807 59.6108C129.134 60.1436 129.74 60.4342 130.236 59.9498C130.629 59.5719 130.914 59.0951 131.059 58.5694C137.216 60.7212 143.521 62.4209 149.925 63.655C152.964 64.2241 156.064 64.3331 159.103 64.8659C163.195 65.556 164.079 69.2491 163.946 72.8575C163.651 72.8416 163.359 72.7929 163.074 72.7122C162.448 72.5181 161.833 72.2877 161.234 72.022C161.234 72.022 161.161 72.022 161.161 72.0946C161.039 72.5739 161.077 73.08 161.27 73.5355C161.38 73.8908 161.617 74.1928 161.936 74.3831C161.219 74.7569 160.581 75.2669 160.059 75.8846C159.708 76.2478 158.727 77.0954 158.848 77.7009C158.97 78.3063 159.599 78.1368 160.059 78.0036C160.01 78.1117 159.989 78.2305 159.998 78.3489C160.008 78.4673 160.047 78.5814 160.112 78.6806C160.177 78.7798 160.267 78.8608 160.372 78.916C160.477 78.9713 160.594 78.9989 160.713 78.9965H161.089C161.839 79.8441 162.929 79.1418 163.692 78.6453L164.697 78.0036C164.697 80.8975 165.145 83.8035 165.411 86.6854C165.605 88.9012 165.702 91.1534 165.992 93.3693C166.574 110.006 165.169 111.798 164.261 123.362V123.301ZM166.404 93.2845C166.247 90.8628 165.908 88.4411 165.702 86.0194C165.46 83.2708 165.363 80.4616 164.927 77.7372C165.862 77.1385 166.721 76.4268 167.482 75.6182C168.099 76.599 168.753 77.5556 169.334 78.4879C169.498 78.5884 169.679 78.6582 169.867 78.6938C169.649 81.1155 170.824 90.4269 171.26 93.7446C168.911 93.672 167.167 93.454 166.404 93.345V93.2845ZM171.49 93.7688C171.235 90.4027 170.582 81.1155 170.279 78.6938C178.827 78.5606 187.909 76.1994 194.072 70.0846C194.205 73.8625 195.38 85.1718 195.44 87.0365C195.527 87.6138 195.468 88.2037 195.267 88.7518C195.066 89.2999 194.73 89.7886 194.29 90.1726C186.662 93.9262 177.314 94.1563 171.49 93.8294V93.7688ZM188.442 174C186.492 174.884 182.569 176.603 181.261 174.145C181.946 174.204 182.635 174.139 183.296 173.951C186.917 173.253 190.34 171.765 193.321 169.592C194.641 171.033 189.204 173.685 188.381 174.06L188.442 174ZM193.2 169.29C190.397 171.381 187.155 172.81 183.719 173.467C182.642 173.685 180.91 174.109 180.692 172.668C180.727 172.135 180.921 171.624 181.249 171.203C181.382 170.96 181.54 170.73 181.697 170.5C182.134 170.733 182.515 171.06 182.811 171.457C182.944 171.554 183.065 171.372 183.017 171.251C182.748 170.81 182.345 170.466 181.867 170.27C182.097 169.955 182.339 169.653 182.581 169.35C183.441 169.701 183.671 170.379 183.925 170.561C184.179 170.743 184.143 170.561 184.107 170.428C183.802 169.87 183.338 169.415 182.775 169.12L183.392 168.369C184.313 168.938 184.603 169.677 184.87 169.931C184.979 170.016 185.197 169.931 185.136 169.774C184.813 169.077 184.296 168.488 183.647 168.079L184.288 167.279C185.717 169.701 191.214 168.49 191.42 165.705C192.111 166.861 192.687 168.082 193.14 169.35L193.2 169.29ZM190.536 162.557C190.779 163.453 192.534 167.267 187.848 168.115C184.591 168.708 183.344 164.821 183.271 164.664C185.809 164.613 188.29 163.908 190.476 162.618L190.536 162.557ZM221.583 144.031C221.013 143.777 221.013 143.293 220.808 142.82C220.535 142.035 220.173 141.283 219.73 140.58C217.732 137.916 213.676 138.643 211.097 140.096C210.455 140.481 209.911 141.009 209.508 141.639C209.104 142.269 208.852 142.985 208.772 143.728C208.758 144.053 208.725 144.376 208.675 144.697C208.445 145.508 208.263 145.484 207.391 145.593C206.265 145.738 196.07 146.441 190.306 146.61C189.398 141.307 188.502 136.052 188.115 133.908C187.539 131.497 187.445 128.995 187.836 126.547C189.305 124.348 190.421 121.934 191.142 119.39C194.908 119.136 203.25 118.41 205.381 118.967C208.033 119.693 209.45 121.945 210.431 124.343C211.411 126.74 212.162 129.404 213.01 131.789C213.01 131.886 213.264 131.935 213.3 131.935C215.407 131.935 217.563 131.632 219.669 131.535C221.776 131.438 224.61 130.639 226.402 131.971C227.714 133.196 228.532 134.858 228.702 136.645C229.122 138.983 229.324 141.354 229.308 143.728C227.177 143.656 221.922 144.189 221.583 144.031Z" fill="#5784EB"/>
<path d="M218.156 150.231C218.566 149.905 218.905 149.498 219.153 149.036C219.401 148.574 219.552 148.066 219.597 147.544C219.643 147.022 219.581 146.496 219.417 145.998C219.252 145.501 218.988 145.042 218.641 144.649C217.894 143.716 216.855 143.061 215.69 142.79C214.526 142.52 213.304 142.65 212.223 143.16C209.729 144.637 210.479 147.749 211.618 149.323C212.925 151.115 216.364 151.442 218.156 150.231ZM212.417 143.572C213.146 143.217 213.958 143.069 214.765 143.144C215.572 143.218 216.343 143.513 216.994 143.995C218.689 145.097 219.755 147.713 218.205 149.384C216.994 150.679 214.064 150.594 212.72 149.565C210.128 147.616 211.073 144.225 212.417 143.572Z" fill="#5784EB"/>
<path d="M215.527 147.204C215.749 146.978 215.873 146.674 215.873 146.357C215.873 146.04 215.749 145.735 215.527 145.509C215.302 145.298 215.006 145.18 214.697 145.18C214.389 145.18 214.093 145.298 213.868 145.509C213.755 145.604 213.662 145.721 213.596 145.853C213.53 145.986 213.491 146.13 213.483 146.278C213.475 146.425 213.498 146.573 213.549 146.712C213.601 146.85 213.681 146.977 213.783 147.083C213.888 147.209 214.017 147.311 214.162 147.386C214.307 147.46 214.466 147.504 214.629 147.516C214.792 147.527 214.956 147.505 215.11 147.452C215.264 147.398 215.406 147.314 215.527 147.204ZM215.03 145.763C215.122 145.799 215.203 145.855 215.268 145.928C215.333 146.001 215.38 146.088 215.405 146.183C215.43 146.277 215.432 146.376 215.411 146.472C215.39 146.567 215.347 146.657 215.285 146.732C214.062 148.028 213.347 145.206 215.006 145.739L215.03 145.763ZM204.375 123.133C201.953 121.268 197.376 122.551 194.797 123.326C194.77 123.329 194.746 123.342 194.728 123.362C194.71 123.382 194.7 123.408 194.7 123.435C194.918 126.281 195.584 129.308 196.032 132.129C196.032 132.129 203.624 131.173 207.39 131.185C207.487 131.185 207.668 131.185 207.656 131.051C207.305 128.339 206.688 124.925 204.375 123.133ZM196.371 131.608C195.972 128.993 195.802 126.293 195.281 123.69C197.836 123.205 202.074 121.837 204.266 123.811C206.179 125.518 206.615 128.279 206.978 130.688C205.21 130.688 198.139 131.342 196.371 131.633V131.608ZM216.665 155.026C213.154 152.907 208.286 153.622 204.557 155.026C202.596 155.742 200.755 156.75 199.096 158.017C197.8 159.022 196.589 160.197 196.856 161.952C196.856 162.219 198.853 168.576 198.89 168.588C202.123 170.658 206.918 170.525 210.502 169.665C212.494 169.195 214.401 168.419 216.156 167.365C217.725 166.389 219.011 165.02 219.886 163.393C219.886 163.393 219.571 159.361 219.559 159.264C219.456 158.376 219.138 157.527 218.634 156.789C218.13 156.05 217.454 155.446 216.665 155.026ZM198.2 159.494C199.711 157.907 201.55 156.668 203.588 155.862C207.487 154.13 213.057 153.549 216.29 155.45C218.384 156.661 219.789 159.216 218.251 161.504C216.961 163.041 215.291 164.214 213.408 164.907C209.594 166.614 204.302 167.982 200.44 165.718C198.369 164.507 196.371 161.734 198.2 159.494ZM215.357 167.183C213.797 168.041 212.127 168.681 210.393 169.084C206.771 170.038 202.933 169.748 199.495 168.261C199.495 168.261 198.587 165.549 198.139 164.217C198.974 165.215 200.025 166.012 201.211 166.547C202.398 167.082 203.691 167.341 204.992 167.304C209.244 167.196 213.369 165.831 216.847 163.381C217.788 162.78 218.533 161.918 218.99 160.899C219.099 161.674 219.196 163.26 219.196 163.321C218.291 164.933 216.964 166.268 215.357 167.183Z" fill="#5784EB"/>
<path d="M206.072 164.446L205.708 165.088C205.575 165.33 205.951 165.548 206.084 165.306L206.495 164.592C206.904 164.715 207.334 164.742 207.755 164.67C208.175 164.599 208.573 164.431 208.917 164.18C209.123 164.023 208.917 163.708 208.651 163.829C208.073 164.152 207.399 164.259 206.75 164.132C207.452 162.921 208.203 161.819 208.966 160.705C209.244 160.705 209.523 160.705 209.813 160.778C210.358 160.864 210.917 160.778 211.411 160.533C211.906 160.288 212.312 159.895 212.574 159.409C212.74 158.972 212.764 158.493 212.642 158.04C212.52 157.588 212.259 157.186 211.896 156.891L211.714 156.77L212.126 156.14C212.133 156.131 212.138 156.121 212.142 156.11C212.145 156.1 212.146 156.088 212.145 156.077C212.144 156.066 212.14 156.055 212.135 156.045C212.13 156.035 212.123 156.026 212.114 156.019C212.105 156.012 212.095 156.006 212.084 156.003C212.073 156 212.062 155.999 212.051 156C212.04 156.001 212.029 156.004 212.019 156.01C212.009 156.015 212 156.022 211.993 156.031C211.799 156.225 211.605 156.419 211.424 156.624C210.778 156.44 210.1 156.402 209.438 156.513C208.776 156.624 208.147 156.882 207.597 157.266C207.488 157.339 207.597 157.533 207.694 157.484C208.31 157.205 208.962 157.014 209.632 156.915C210.114 156.857 210.604 156.894 211.072 157.024C210.196 158.048 209.387 159.128 208.651 160.257C207.379 160.124 205.914 160.027 205.018 161.201C204.817 161.469 204.683 161.781 204.627 162.111C204.572 162.441 204.597 162.78 204.7 163.098C204.804 163.417 204.982 163.705 205.221 163.94C205.46 164.175 205.752 164.348 206.072 164.446ZM211.46 157.097C211.767 157.2 212.024 157.413 212.183 157.694C212.342 157.976 212.39 158.307 212.32 158.622C212.005 160.245 210.6 160.378 209.293 160.269C210.019 159.216 210.746 158.162 211.46 157.097ZM207.052 160.584C207.455 160.539 207.861 160.539 208.263 160.584C207.549 161.686 206.883 162.824 206.241 163.938C204.037 162.945 205.321 160.79 207.052 160.584ZM72.7329 187.901C72.3201 186.805 71.6487 185.826 70.7759 185.046C69.9031 184.266 68.8547 183.708 67.72 183.42C64.3472 182.559 60.7922 182.74 57.5247 183.941C54.6913 184.837 50.2596 187.344 51.1556 191C51.2646 191.775 52.7539 197.345 52.8387 197.345C55.7205 200.3 60.6123 200.215 64.3781 199.767C67.72 199.319 72.4666 198.096 73.7743 194.512C73.5558 192.323 73.2162 190.149 72.7572 187.998C72.7637 187.99 72.7683 187.981 72.7706 187.972C72.773 187.962 72.7729 187.952 72.7706 187.943C72.7682 187.933 72.7635 187.924 72.7569 187.917C72.7504 187.91 72.7422 187.904 72.7329 187.901ZM51.9184 188.373C53.109 186.466 54.9711 185.075 57.1372 184.474C60.4898 183.199 64.1504 182.971 67.6353 183.82C69.9843 184.365 72.963 186.678 72.4787 189.414C72.067 191.945 70.057 193.047 67.8895 193.882C63.9404 195.614 59.4916 195.829 55.3936 194.488C52.8508 193.495 50.3443 191.267 51.9184 188.373ZM63.7848 199.355C61.8959 199.604 59.9826 199.604 58.0938 199.355C56.2765 199.019 54.5514 198.301 53.0324 197.248C53.0324 197.248 52.3786 194.173 52.0032 192.708C53.8679 195.02 57.9 195.638 60.5397 195.638C62.7593 195.635 64.9622 195.254 67.0541 194.512C68.8401 194.045 70.4805 193.137 71.8248 191.872C72.2205 191.423 72.5248 190.9 72.7208 190.334C72.8903 191.703 73.411 194.403 73.411 194.403C71.1346 197.696 67.6232 198.847 63.7848 199.271V199.355Z" fill="#5784EB"/>
<path d="M59.74 193.095L59.4615 193.531C59.3768 193.664 59.5826 193.834 59.6795 193.7L60.0306 193.228C60.5227 193.439 61.0563 193.536 61.5912 193.511C62.126 193.486 62.6482 193.339 63.1183 193.083C63.2999 192.974 63.1909 192.659 62.973 192.732C62.1144 193.066 61.17 193.108 60.2849 192.853C60.9993 191.775 62.5855 188.93 62.7671 188.663C63.8569 188.784 65.0193 188.821 65.6974 187.804C65.8623 187.629 65.9813 187.416 66.0436 187.183C66.106 186.951 66.1097 186.707 66.0545 186.473C65.9993 186.239 65.8869 186.022 65.7273 185.843C65.5678 185.663 65.3661 185.525 65.1404 185.442L65.3705 185.116C65.4552 185.007 65.2857 184.898 65.1888 184.982L64.8377 185.321C64.3364 185.128 63.7966 185.056 63.2622 185.111C62.7278 185.165 62.2139 185.345 61.7621 185.636C61.6653 185.721 61.7621 185.842 61.8953 185.794C62.5064 185.534 63.1702 185.422 63.8327 185.467C64.0812 185.484 64.3259 185.537 64.5592 185.624C63.809 186.434 63.1436 187.318 62.5734 188.264C62.0136 188.137 61.4392 188.089 60.8661 188.118C60.3194 188.177 59.7992 188.384 59.3617 188.717C58.9242 189.05 58.5861 189.496 58.3839 190.007C58.1642 190.597 58.183 191.25 58.4361 191.826C58.6893 192.402 59.157 192.858 59.74 193.095ZM64.8861 185.83C65.9396 186.496 65.6368 188.009 63.9053 188.336C63.6082 188.379 63.3065 188.379 63.0093 188.336C63.6026 187.452 64.2444 186.629 64.8861 185.794V185.83ZM62.3554 188.663C61.5321 190.007 60.8056 191.412 59.9337 192.744C59.6627 192.601 59.4252 192.401 59.2373 192.159C59.0494 191.917 58.9153 191.637 58.844 191.339C58.2749 188.99 60.5392 188.445 62.3554 188.627V188.663ZM38.2111 167.328C35.0678 165.675 31.4576 165.133 27.9673 165.79C25.0492 166.117 20.2179 167.74 20.4358 171.457C20.4358 172.208 20.7264 177.923 20.7991 177.947C22.9907 181.338 27.6162 182.282 31.3456 182.585C34.7602 182.863 39.8215 182.706 41.88 179.376L42.2069 172.753C42.0169 171.597 41.5557 170.503 40.8611 169.56C40.1666 168.617 39.2584 167.852 38.2111 167.328ZM41.553 179.279C38.7076 181.943 35.1355 182.403 31.3456 182.101C29.4353 181.992 27.5469 181.638 25.7273 181.047C23.9474 180.346 22.3405 179.268 21.017 177.887C21.017 177.887 21.017 174.751 20.9323 173.249C22.3248 175.974 26.3085 177.415 28.9965 177.935C31.1045 178.338 33.2645 178.392 35.3898 178.093C37.2017 177.984 38.9597 177.436 40.5117 176.494C40.9986 176.129 41.4098 175.672 41.7226 175.15C41.5894 176.519 41.553 179.279 41.553 179.279ZM41.8194 173.734C41.105 176.276 38.8892 177.051 36.5522 177.511C32.3393 178.455 27.9269 177.831 24.141 175.756C21.8889 174.424 19.6488 171.917 21.4772 169.278C22.1745 168.415 23.0372 167.701 24.0145 167.177C24.9918 166.653 26.0641 166.33 27.1682 166.226C30.857 165.468 34.6935 165.967 38.0658 167.643C40.0395 168.636 42.5217 171.276 41.8194 173.734Z" fill="#5784EB"/>
<path d="M35.3538 168.696L35.5597 168.515C35.6565 168.43 35.5597 168.273 35.4144 168.333L35.1238 168.527C34.6399 168.271 34.1091 168.117 33.5637 168.073C33.0183 168.03 32.4697 168.097 31.9514 168.273C31.9285 168.284 31.9103 168.303 31.9001 168.327C31.8899 168.35 31.8882 168.376 31.8954 168.401C31.9027 168.425 31.9183 168.447 31.9396 168.461C31.9609 168.475 31.9865 168.481 32.0119 168.478C32.9336 168.327 33.879 168.428 34.7484 168.769C33.9108 169.363 33.1323 170.036 32.4236 170.779L31.7334 170.682C31.161 170.507 30.5563 170.464 29.9649 170.556C29.3735 170.649 28.8107 170.874 28.3188 171.215C28.0075 171.447 27.7565 171.751 27.5872 172.1C27.4178 172.45 27.335 172.835 27.3456 173.223C27.3563 173.611 27.4602 173.991 27.6486 174.331C27.8369 174.67 28.1041 174.96 28.4278 175.174L28.0645 175.55C27.9313 175.671 28.1251 175.852 28.2704 175.743L28.6821 175.368C29.1103 175.696 29.6136 175.912 30.1464 175.997C30.6792 176.081 31.2246 176.032 31.7334 175.852C31.7725 175.831 31.8031 175.797 31.82 175.756C31.837 175.715 31.8392 175.669 31.8264 175.627C31.8137 175.584 31.7866 175.547 31.7498 175.522C31.713 175.497 31.6687 175.485 31.6244 175.489C30.7446 175.594 29.8533 175.443 29.0574 175.053C30.0382 174.097 32.2904 171.493 32.5447 171.251C33.316 171.408 34.1139 171.375 34.8695 171.154C35.2172 171.063 35.5161 170.84 35.7034 170.533C35.8907 170.226 35.952 169.859 35.8745 169.508C35.7974 169.186 35.6139 168.9 35.3538 168.696ZM28.7305 174.86C28.5133 174.738 28.3228 174.574 28.1705 174.377C28.0181 174.18 27.9069 173.955 27.8436 173.714C27.7803 173.473 27.7662 173.222 27.8021 172.976C27.838 172.73 27.9231 172.493 28.0524 172.28C28.7184 170.936 30.0503 170.876 31.3459 171.07L32.0482 171.179C30.91 172.365 29.8687 173.661 28.7305 174.86ZM34.034 170.852C33.6676 170.888 33.2985 170.888 32.9321 170.852C33.6223 170.21 34.3488 169.641 35.0632 168.975C35.1932 169.076 35.2965 169.207 35.3641 169.356C35.4316 169.506 35.4614 169.67 35.4507 169.835C35.4386 170.658 34.6637 170.803 34.034 170.852Z" fill="#5784EB"/>
</svg>
