<svg width="214" height="144" viewBox="0 0 214 144" fill="none" xmlns="http://www.w3.org/2000/svg">
<path d="M117.334 30.5831C116.405 31.0955 117.937 32.9325 118.29 31.5033C118.346 31.0643 117.752 30.3521 117.334 30.5831Z" fill="#004455"/>
<path d="M122.727 28.9771C122.783 28.538 122.189 27.8294 121.771 28.058C120.843 28.5777 122.373 30.4062 122.727 28.9771Z" fill="#004455"/>
<path d="M69.5789 102.583C69.4343 102.619 69.309 102.716 69.2307 102.851C69.1524 102.987 69.1274 103.15 69.1612 103.306C69.1951 103.461 69.285 103.596 69.4112 103.68C69.5374 103.764 69.6896 103.791 69.8342 103.754C78.1817 101.671 86.841 101.473 95.2635 103.173C103.686 104.872 111.688 108.433 118.763 113.628C118.882 113.629 118.999 113.588 119.095 113.512C119.191 113.436 119.262 113.328 119.298 113.206C119.334 113.083 119.332 112.952 119.293 112.83C119.253 112.709 119.179 112.604 119.081 112.531C111.926 107.27 103.828 103.668 95.3054 101.955C86.7824 100.242 78.0207 100.456 69.5789 102.583Z" fill="#004455"/>
<path d="M122.458 108.744C109.622 100.121 95.2778 94.325 80.0587 96.7298C79.9156 96.7554 79.7874 96.8397 79.701 96.9648C79.6146 97.09 79.5768 97.2462 79.5955 97.4007C79.6142 97.5552 79.688 97.6959 79.8014 97.7931C79.9147 97.8903 80.0587 97.9365 80.2031 97.9219C89.5859 96.6004 99.1274 97.9271 107.888 101.772C112.72 104.072 117.391 106.744 121.865 109.765C121.991 109.85 122.143 109.877 122.288 109.841C122.433 109.805 122.558 109.708 122.637 109.573C122.715 109.437 122.741 109.274 122.707 109.119C122.673 108.963 122.584 108.828 122.458 108.744Z" fill="#004455"/>
<path d="M90.0782 92.3443C89.9297 92.35 89.7894 92.4189 89.6882 92.5358C89.587 92.6526 89.5331 92.8079 89.5384 92.9674C89.5438 93.1269 89.6079 93.2777 89.7167 93.3864C89.8255 93.4951 89.97 93.553 90.1185 93.5472C103.029 93.0551 115.664 97.6367 125.656 106.434C126.202 106.934 126.942 105.993 126.367 105.504C116.144 96.5594 103.256 91.8859 90.0782 92.3443Z" fill="#004455"/>
<path d="M87 87.9632C86.8515 87.9748 86.7134 88.0494 86.6161 88.1704C86.5187 88.2915 86.4701 88.4491 86.481 88.6086C86.4918 88.7681 86.5612 88.9165 86.6739 89.0211C86.7865 89.1256 86.9333 89.1778 87.0818 89.1662C102.68 87.9253 118.122 93.1952 130.194 103.879C130.735 104.38 131.482 103.44 130.904 102.95C118.602 92.0868 102.883 86.7209 87 87.9632Z" fill="#004455"/>
<path d="M92.4418 85.2654C99.9881 84.1509 107.671 84.8937 114.911 87.4377C122.151 89.9817 128.758 94.2604 134.233 99.9503C134.737 100.498 135.548 99.6255 135.011 99.0865C129.407 93.2809 122.651 88.9142 115.252 86.3143C107.852 83.7143 100.001 82.9485 92.2861 84.0744C92.1419 84.1 92.0127 84.1852 91.9261 84.3117C91.8396 84.4382 91.8025 84.5961 91.8228 84.7515C91.8431 84.907 91.9193 85.0478 92.0349 85.1438C92.1506 85.2399 92.2966 85.2835 92.4418 85.2654Z" fill="#004455"/>
<path d="M35.0559 88.0238C32.0156 88.813 31.7838 93.3891 35.2182 93.4373C39.8531 93.4649 39.955 86.7511 35.0559 88.0238ZM37.4074 91.1444C37.0781 91.5708 36.6446 91.8903 36.1556 92.0669C35.6667 92.2434 35.1416 92.2702 34.6393 92.144C33.1119 91.5426 33.8219 89.5973 35.3985 89.1691C36.6236 88.5363 38.2563 89.8187 37.4063 91.1444H37.4074Z" fill="#004455"/>
<path d="M166.344 103.419C165.72 103.419 165.435 103.419 163.808 114.501C163.024 119.813 162.292 125.425 162.163 126.457C162.231 127.696 164.471 127.114 165.271 127.299C183.88 127.054 184.331 104.907 166.344 103.419ZM176.126 121.629C172.896 125.464 167.512 126.4 163.351 126.003C164.01 120.83 165.95 106.827 166.653 104.635C175.386 105.103 182.397 114.181 176.126 121.629Z" fill="#004455"/>
<path d="M213.044 18.2875C210.968 16.6117 208.509 18.0348 206.647 16.2556C206.461 16.0615 206.239 15.9115 205.995 15.8155C205.752 15.7194 205.492 15.6794 205.233 15.698C204.974 15.7166 204.722 15.7934 204.492 15.9234C204.263 16.0535 204.061 16.2339 203.901 16.4529C203.261 17.3015 202.89 18.3476 202.842 19.4387C196.245 26.7397 188.43 32.3805 176.191 35.5648C178.751 32.743 180.843 29.4709 182.375 25.8904C186.07 16.2075 171.095 8.80793 164.57 7.04916C164.281 5.7367 165.166 3.6411 165.526 2.29616C165.934 0.524155 164.742 -0.35042 163.868 0.130775C161.717 0.893469 160.685 3.4414 159.436 5.19656C156.996 8.68522 158.837 9.73784 161.703 11.3125C161.617 11.4317 161.579 11.5821 161.597 11.7313C161.614 11.8804 161.685 12.0161 161.796 12.1089C163.276 13.6897 170.53 19.885 167.699 22.2429C166.167 23.5145 161.577 27.3243 158.912 29.7604C153.713 29.4909 151.444 29.4777 148.086 30.0996C148.045 30.1074 148.009 30.1294 147.981 30.1622C147.954 30.195 147.937 30.2367 147.934 30.2807C147.931 30.3247 147.942 30.3686 147.965 30.4053C147.988 30.442 148.021 30.4694 148.06 30.4834C157.965 35.6153 159.745 49.3618 156.544 59.1746C158.742 59.011 162.596 59.2757 164.421 58.3626C171.319 57.6276 181.071 55.5957 186.206 52.4595C191.462 49.3845 196.017 45.0944 199.543 39.8987C203.068 34.7031 205.476 28.7316 206.593 22.4149C208.596 21.6127 210.652 20.9694 212.743 20.4901C213.713 20.3265 214.423 18.8108 213.044 18.2875ZM168.972 9.91829C175.006 12.4554 184.064 18.6857 181.355 25.3911C179.615 29.4647 177.126 33.1181 174.037 36.1314C172.941 36.4177 171.496 36.7233 170.377 36.9903C173.643 33.4953 176.613 29.6958 179.254 25.6365C179.995 24.6149 180.464 23.3968 180.611 22.1118C180.038 17.9073 176.356 16.7079 173.314 14.4728C171.74 13.5314 170.225 12.4822 168.776 11.3318C168.907 10.8738 168.973 10.3973 168.972 9.91829ZM162.828 10.6112L160.424 9.19649C159.817 8.84522 159.192 8.29064 159.5 7.48584C160.223 6.06367 161.046 4.70347 161.963 3.41734C162.5 2.39467 163.364 1.61679 164.396 1.22911C164.476 1.27241 164.532 1.61887 164.463 1.93526C163.901 3.5374 163.512 5.20365 163.304 6.90119C163.238 7.25024 163.255 7.61132 163.353 7.95152C163.451 8.29171 163.627 8.60019 163.864 8.84883C163.725 9.55015 163.358 10.1752 162.828 10.6112ZM164.329 12.9318C163.939 12.548 163.569 12.151 163.194 11.8058C163.734 11.4515 164.184 10.9607 164.506 10.3762C164.828 9.79179 165.012 9.13149 165.042 8.45305C165.924 8.74056 166.854 9.07379 167.784 9.43709C168.249 11.6506 166.276 13.9952 164.329 12.9318ZM157.577 30.8635C158.186 30.8046 158.909 31.1811 159.457 30.8467C162.069 28.4407 166.823 24.4949 168.354 23.2233C171.455 20.5431 167.633 16.6153 165.608 14.3501C166.176 14.3246 166.727 14.1375 167.205 13.808C167.683 13.4784 168.071 13.0183 168.33 12.4746C171.387 15.3883 178.558 17.6174 179.495 22.048C179.358 23.1031 178.961 24.0997 178.346 24.9352C175.616 29.1382 172.528 33.0596 169.122 36.6487C168.569 35.9269 167.228 34.1862 166.508 35.2652C166.479 35.338 166.463 35.4161 166.462 35.4953C166.462 35.5744 166.475 35.6529 166.503 35.7263C166.53 35.7997 166.571 35.8666 166.622 35.9231C166.674 35.9796 166.735 36.0246 166.803 36.0556C167.48 36.3994 168.042 36.9578 168.414 37.6556C168.791 39.1629 171.233 37.8829 172.235 37.7951C184.069 35.2592 194.733 30.013 201.086 22.8781C201.82 23.0604 202.484 23.4803 202.989 24.0811C196.617 41.1936 183.3 51.1615 166.403 51.5465C166.977 43.626 164.657 34.7227 157.577 30.8635ZM198.075 40.1265C190.658 51.4093 178.946 55.5139 165.732 56.9984C166.084 55.6139 166.282 54.1891 166.321 52.7543C183.553 52.403 197.163 42.3508 203.802 25.0711C205.799 27.7803 199.962 37.2586 198.075 40.1265ZM205.113 24.1568C205.063 24.371 205.001 24.5815 204.948 24.7944C204.282 23.4935 203.225 22.4736 201.949 21.9012C202.47 21.3455 203.192 20.1449 203.942 20.4504C204.275 20.5735 204.577 20.7767 204.825 21.0444C205.073 21.3122 205.261 21.6375 205.374 21.9953C205.487 22.3531 205.522 22.7339 205.477 23.1086C205.431 23.4833 205.307 23.8419 205.113 24.1568ZM206.338 21.1891C205.829 20.3808 205.128 19.7333 204.308 19.3136C203.542 19.3317 204.517 17.4779 204.762 17.212C205.507 15.8093 207.64 19.6769 211.481 19.5927C209.741 20.0233 208.024 20.5562 206.338 21.1891Z" fill="#004455"/>
<path d="M120.801 27.3362C121.328 27.1786 121.93 26.7768 122.406 27.0499C122.544 27.1091 122.698 27.107 122.834 27.044C122.971 26.9811 123.078 26.8625 123.133 26.7143C123.189 26.5661 123.187 26.4004 123.128 26.2538C123.069 26.1071 122.959 25.9915 122.821 25.9323C122.158 25.5859 119.927 25.7531 120.321 27.0451C120.37 27.134 120.441 27.2076 120.525 27.2586C120.609 27.3096 120.704 27.3363 120.801 27.3362Z" fill="#004455"/>
<path d="M116.701 30.5339C116.82 30.0896 117.064 29.6961 117.401 29.4079C117.52 29.3122 117.598 29.1697 117.619 29.0118C117.64 28.8538 117.602 28.6934 117.513 28.5658C117.424 28.4382 117.291 28.3538 117.144 28.3312C116.997 28.3087 116.848 28.3498 116.729 28.4455C116.188 28.9006 115.798 29.5302 115.616 30.2416C115.587 30.3933 115.614 30.5512 115.691 30.6822C115.767 30.8133 115.888 30.9075 116.028 30.9451C116.168 30.9828 116.316 30.9611 116.441 30.8845C116.567 30.8079 116.66 30.6823 116.701 30.5339Z" fill="#004455"/>
<path d="M122.331 33.6135C121.81 34.1572 122.616 35.0234 123.122 34.464C123.346 34.2234 123.537 33.9924 123.729 33.7554C123.446 34.2836 123.131 34.9921 123.973 35.1269C125.073 34.7888 125.093 33.03 124.411 32.2036C123.544 31.406 122.95 33.1551 122.331 33.6135Z" fill="#004455"/>
<path d="M120.067 33.2994C120.728 33.6338 122.142 32.4814 121.335 31.7512C120.974 31.4468 120.551 31.8715 120.388 32.1433C120.076 31.7668 120.803 29.1611 119.762 29.2056C119.614 29.2056 119.471 29.269 119.366 29.3818C119.261 29.4946 119.202 29.6476 119.202 29.8071C119.275 30.7767 118.844 32.9951 120.067 33.2994Z" fill="#004455"/>
<path d="M189.814 105.909C186.144 97.928 176.936 93.2002 166.149 91.2875C170.619 86.9627 172.401 85.1727 172.51 84.9369C172.968 82.9869 172.653 76.2429 173.54 74.4481C173.585 74.3201 173.592 74.1799 173.559 74.0477C173.525 73.9154 173.454 73.7978 173.355 73.7118C167.187 69.1928 160.442 65.6597 153.329 63.223C159.572 52.6511 156.924 33.6752 143.985 30.0987C146.424 26.3586 143.879 20.6444 139.607 21.021C136.786 21.0664 133.973 21.363 131.197 21.9076C131.903 21.2676 131.533 19.8625 131.026 19.3476C133.297 17.975 130.417 13.6527 128.227 13.8692C128.339 12.0166 127.136 8.63139 125.115 10.1063C124.523 9.16967 123.774 8.35986 122.906 7.71832C121.775 6.99653 120.322 6.82931 119.697 8.13816C118.764 7.49478 117.712 7.07353 116.615 6.90269C115.19 6.88104 113.927 7.86509 114.1 9.2377C112.586 8.8768 110.919 9.04882 110.095 10.6813C109.698 11.6617 110.598 12.2187 109.181 12.1465C107.196 12.3402 105.934 15.2466 107.95 16.6108C105.749 17.1509 104.03 21.4324 107.027 22.1073C105.968 23.6711 105.242 26.0025 106.45 27.5772C90.8906 30.3754 78.4889 32.7056 66.7623 35.1982C61.1018 37.9386 56.8656 41.5475 51.4401 44.5815C51.313 44.6524 51.216 44.773 51.1691 44.9185C51.1222 45.064 51.1291 45.2232 51.1882 45.3634C52.0146 47.3171 67.1028 48.7318 70.1184 49C83.9844 46.8418 97.7323 43.8834 111.302 40.1376C106.557 44.2158 99.7762 48.0268 99.1872 55.3013C84.3432 53.4884 70.4969 55.7981 58.7726 63.8245C38.9354 76.4739 18.3714 89.1558 0 104.817C0.518466 108.485 1.6797 112.186 1.85326 115.636C1.86427 115.77 1.91649 115.895 2.00164 115.993C2.08679 116.091 2.19998 116.156 2.32324 116.177C2.44651 116.198 2.57277 116.174 2.68198 116.109C2.79119 116.044 2.87709 115.942 2.92603 115.819C16.1956 111.65 31.1953 111.545 44.9341 114.814C56.1131 116.922 52.4244 122.56 55.8141 123.356C56.0168 123.41 59.7927 123.913 59.8453 123.846C60.5542 123.781 60.8733 122.914 60.8532 122.319C61.2563 116.785 64.2954 116.654 69.2091 116.905C92.119 118.503 100.367 122.547 119.359 135.551C119.43 135.601 119.512 135.632 119.596 135.642C119.68 135.652 119.766 135.641 119.845 135.608C119.925 135.576 119.996 135.524 120.054 135.457C120.111 135.389 120.153 135.309 120.176 135.221C131.466 124.394 148.075 108.661 155.467 101.537C152.624 114.062 150.026 126.734 147.093 142.353C147.078 142.434 147.079 142.517 147.095 142.598C147.111 142.679 147.143 142.755 147.187 142.822C147.232 142.889 147.289 142.945 147.355 142.987C147.421 143.03 147.494 143.057 147.57 143.068C159.204 144.665 174.247 145.059 183.446 137.104C192.214 130.031 195.259 116.188 189.814 105.909ZM139.633 22.2239C143.599 22.1927 144.943 26.9 142.788 29.7775C141.257 29.3908 139.691 29.1891 138.119 29.176C138.377 27.9549 138.319 26.6814 137.952 25.493C137.585 24.3047 136.922 23.2467 136.036 22.4333C137.219 22.313 138.42 22.2348 139.633 22.2239ZM136.418 46.1839C136.105 44.6464 137.369 44.4167 137.681 45.9649C138.277 50.6784 137.794 55.4768 136.275 59.9448C130.649 59.1462 124.927 59.8486 119.615 61.9899C117.854 60.9452 116.022 60.046 114.134 59.3C116.984 57.0938 120.611 53.9961 123.405 51.9738C126.278 55.6875 130.263 58.2134 134.678 59.1196C134.804 59.1149 134.926 59.0663 135.025 58.9811C135.123 58.8958 135.193 58.7785 135.225 58.6468C136.507 54.6459 136.916 50.3815 136.418 46.1839ZM130.695 28.7309C131.133 27.8877 131.352 26.9333 131.329 25.9679C131.305 25.0024 131.04 24.0615 130.562 23.2441C131.75 23.0432 133.057 22.7472 134.369 22.6426C135.439 23.2578 136.28 24.2504 136.749 25.4533C137.218 26.6561 137.287 27.9958 136.945 29.247C135.008 29.419 131.193 29.828 129.89 29.9688C129.397 29.585 130.592 29.3107 130.695 28.7309ZM116.089 26.5523C117.743 27.303 119.297 25.7319 119.936 24.0862C120.518 24.3396 121.162 24.3754 121.765 24.188C122.369 24.0006 122.896 23.6008 123.262 23.0528C123.466 23.2486 123.718 23.3777 123.988 23.4248C124.258 23.4719 124.535 23.4351 124.786 23.3187C125.111 23.9009 125.86 24.9619 126.435 25.7607C126.398 26.2526 126.481 26.7464 126.678 27.1923C126.806 27.4644 127.011 27.6854 127.264 27.8228C127.517 27.9602 127.805 28.0067 128.084 27.9555C128.364 27.9044 128.62 27.7582 128.817 27.5385C129.013 27.3188 129.139 27.0373 129.175 26.7352C129.166 26.5727 129.601 26.5812 129.746 26.2455C129.992 25.9105 130.111 25.4892 130.082 25.0642C130.339 26.2167 130.246 28.3604 128.957 28.69C128.52 28.7165 128.107 29.2915 128.367 29.7282C129.336 31.4975 130.541 33.1052 131.942 34.5004C132.328 37.9674 127.351 42.4113 125.31 38.1527C126.059 37.4249 126.328 38.3668 126.918 38.907C127.254 39.2679 127.824 38.6664 127.484 38.2983C127.05 37.9117 126.668 37.4609 126.351 36.9593C126.239 36.7187 126.015 36.7187 125.785 36.839C124.551 37.8294 123.008 38.266 121.48 38.0565C120.615 37.8268 119.803 37.4108 119.092 36.8336C118.381 36.2565 117.786 35.5302 117.345 34.6989C117.255 34.1179 117.104 33.1483 116.377 32.7742C115.525 32.1161 115.293 30.5992 114.86 29.5586C115.457 28.6577 115.876 27.6344 116.089 26.5523ZM121.936 38.9226C119.201 40.7079 115.105 38.1274 114.913 34.8144C114.93 34.5499 115.042 34.3028 115.224 34.1239C115.406 33.9449 115.645 33.8476 115.892 33.852C116.161 34.0469 116.211 34.8 116.284 35.1428C116.476 35.9645 117.396 37.2769 118.095 36.969C119.107 38.1072 120.475 38.803 121.936 38.9226ZM57.1276 46.1405C55.6596 45.9275 54.2079 45.6007 52.7839 45.1625C54.2945 44.6476 55.7973 42.2754 57.3202 43.5325C57.6024 43.9824 56.9193 44.1929 56.9171 44.6091C56.8219 45.3021 57.6393 45.1649 57.8734 45.61C57.7977 45.7571 57.6907 45.8827 57.561 45.9766C57.4314 46.0705 57.2828 46.13 57.1276 46.1502V46.1405ZM70.0053 47.7718C66.1912 47.4326 62.0625 46.9297 58.7334 46.41C58.8384 46.2556 58.912 46.0791 58.9495 45.8922C58.987 45.7052 58.9876 45.5119 58.9511 45.3247C58.9147 45.1375 58.8421 44.9606 58.7381 44.8054C58.634 44.6503 58.5008 44.5203 58.3471 44.4239C58.4425 44.2184 58.495 43.9931 58.5011 43.7636C58.5071 43.534 58.4665 43.3059 58.3821 43.0949C58.2977 42.884 58.1714 42.6954 58.0122 42.5422C57.853 42.389 57.6646 42.275 57.4602 42.208C60.5494 40.0342 63.7662 38.0773 67.0904 36.3494C68.3167 36.4058 69.4946 36.8792 70.4543 37.7012C71.4139 38.5233 72.1057 39.6516 72.4299 40.9234C72.754 42.1951 72.6937 43.5447 72.2578 44.7772C71.8218 46.0098 71.0326 47.0618 70.0041 47.7814L70.0053 47.7718ZM72.0209 47.4807C72.7392 46.6102 73.2568 45.5704 73.5321 44.4454C73.8073 43.3203 73.8324 42.1415 73.6054 41.0041C73.3784 39.8667 72.9055 38.8026 72.2251 37.8977C71.5447 36.9928 70.6757 36.2725 69.6884 35.7949C81.2335 33.419 93.6464 31.0635 109.168 28.3051C109.207 29.4695 110.116 30.942 111.309 30.3152C111.645 30.0746 111.652 29.7462 111.965 30.2635C112.098 30.4407 112.263 30.586 112.452 30.6898C112.64 30.7937 112.846 30.8538 113.058 30.8663C113.269 30.8788 113.48 30.8433 113.678 30.7623C113.875 30.6812 114.055 30.5564 114.205 30.3958C114.491 31.2087 114.83 31.9994 115.218 32.7621C113.382 33.4033 113.578 35.8153 114.493 37.2842C114.06 37.5945 113.654 37.9447 113.278 38.3308C99.6892 42.1778 85.9178 45.2354 72.0231 47.4903L72.0209 47.4807ZM55.757 121.849C55.6868 121.873 55.613 121.882 55.5398 121.875C55.4665 121.868 55.3953 121.845 55.3301 121.809C55.2649 121.772 55.207 121.722 55.1598 121.662C55.1126 121.601 55.0769 121.531 55.0548 121.456C54.2597 118.73 52.6943 116.339 50.576 114.612C48.4578 112.886 45.8917 111.912 43.2343 111.824C43.0858 111.824 42.9434 111.76 42.8384 111.648C42.7334 111.535 42.6744 111.382 42.6744 111.222C42.6744 111.063 42.7334 110.91 42.8384 110.797C42.9434 110.684 43.0858 110.621 43.2343 110.621C46.1314 110.703 48.9318 111.758 51.2424 113.638C53.553 115.517 55.2578 118.127 56.1175 121.1C56.161 121.251 56.1475 121.414 56.0801 121.554C56.0126 121.694 55.8966 121.8 55.757 121.849ZM56.056 116.556C48.3909 103.684 16.6547 101.862 3.45905 103.408C20.1541 89.72 38.5087 78.0823 56.2777 66.8079C68.7948 57.7193 83.1528 54.3594 99.1715 56.5115C99.4313 60.0868 102.021 60.4296 105.057 60.5499C109.704 60.5499 115.173 54.9741 117.213 49.8626C118.655 46.9315 119.822 43.853 120.696 40.673C121.265 40.5873 121.815 40.3904 122.318 40.0919C119.453 46.4906 118.384 54.553 112.775 58.8646C112.257 59.2676 112.696 59.9196 113.121 60.159C115.068 60.9734 116.732 61.7228 118.374 62.6167C116.194 63.6212 113.933 65.5038 111.813 66.2725C100.04 58.4267 83.7385 58.4928 70.0758 61.0997C57.5867 67.4671 47.0293 76.2429 34.9601 83.4332C27.2749 88.2199 19.3288 93.169 11.7344 98.5271C11.6317 98.5996 11.5542 98.7064 11.5137 98.831C11.4731 98.9556 11.4719 99.0911 11.5101 99.2165C11.5483 99.3419 11.6238 99.4504 11.7251 99.5251C11.8263 99.5999 11.9476 99.6368 12.0703 99.6302C22.7615 98.8698 33.4909 100.265 43.7046 103.743C48.2129 105.249 53.7391 107.629 56.5139 112.697C56.1514 113.944 55.9964 115.249 56.056 116.554V116.556ZM63.4321 81.903C52.3102 84.8286 53.9037 80.6194 56.1993 70.9221C62.7221 67.0629 67.9191 61.5039 75.9794 61.2982C88.1471 60.3358 100.775 60.3767 110.832 67.0521C106.072 69.9525 101.314 73.0213 96.5993 76.2549C95.7494 76.6507 94.9532 77.802 94.0451 77.6251C83.7307 77.9111 73.4716 79.3439 63.4321 81.9006V81.903ZM92.7708 78.8847C89.1997 81.3845 85.5212 84.0888 81.5649 87.1227C80.2984 86.9435 77.6524 87.9901 76.8304 86.9724C75.7397 85.3171 76.0466 82.5899 75.9021 80.6134C81.4917 79.7154 87.1218 79.1376 92.7685 78.8823L92.7708 78.8847ZM44.0484 102.598C34.3699 99.3184 24.2348 97.8697 14.0949 98.3165C27.5672 89.1065 41.5087 80.9935 54.8555 71.8159C51.8769 82.6176 53.1758 86.0256 63.7154 83.0675C67.401 82.1676 71.1004 81.4057 74.8137 80.7818C74.7759 82.2759 74.8546 83.7708 75.0488 85.2509C75.359 88.3185 77.3422 89.0295 79.8214 88.4593C73.7733 93.2359 68.0016 98.4039 62.5385 103.934C60.2463 105.957 58.3673 108.466 57.019 111.304C53.8813 106.357 48.1603 103.986 44.0461 102.596L44.0484 102.598ZM84.6578 116.666C84.6153 116.819 84.5181 116.947 84.3875 117.023C84.2568 117.099 84.1036 117.116 83.9613 117.07C84.1024 116.883 57.0571 109.687 59.4523 121.882C59.4682 121.959 59.4698 122.039 59.4569 122.117C59.4441 122.194 59.4172 122.269 59.3776 122.335C59.338 122.402 59.2866 122.46 59.2263 122.505C59.166 122.55 59.098 122.582 59.0262 122.599C58.9544 122.617 58.8801 122.618 58.8077 122.604C58.7352 122.591 58.666 122.562 58.604 122.519C58.542 122.477 58.4883 122.421 58.4462 122.357C58.404 122.292 58.3741 122.219 58.3583 122.142C57.1813 117.035 61.8296 113.388 67.7489 113.586C73.3322 113.552 78.8939 114.335 84.2804 115.914C84.3509 115.937 84.4165 115.974 84.4735 116.024C84.5305 116.074 84.5777 116.135 84.6126 116.205C84.6474 116.275 84.6691 116.351 84.6765 116.43C84.6839 116.508 84.6768 116.588 84.6556 116.663L84.6578 116.666ZM101.112 115.631C101.065 115.782 100.964 115.907 100.831 115.978C100.698 116.049 100.544 116.061 100.403 116.01C100.291 115.968 88.8593 111.865 80.4485 110.605C71.5103 109.267 62.3526 111.327 59.6001 115.29C59.1891 115.923 58.2496 115.19 58.7043 114.568C62.1488 109.604 72.5528 108.205 80.6053 109.41C89.1157 110.686 100.65 114.824 100.762 114.866C100.902 114.918 101.017 115.027 101.083 115.17C101.148 115.313 101.158 115.478 101.11 115.629L101.112 115.631ZM118.245 119.068C114.54 115.749 110.281 113.217 105.695 111.61C97.4233 108.425 88.6898 106.848 79.9032 106.95C73.6816 107.298 60.1846 107.913 57.1534 115.524C57.3493 111.216 60.1499 107.847 63.3022 104.817C78.1272 89.5516 100.722 74.021 118.459 63.9039C122.763 61.4377 128.632 60.479 135.89 61.0492C135.471 61.712 135.096 63.9147 134.362 63.6296C130.376 63.0538 126.342 62.9706 122.339 63.3818C122.265 63.3886 122.194 63.4108 122.128 63.4473C122.063 63.4839 122.005 63.5339 121.957 63.5945C121.91 63.6552 121.874 63.7253 121.851 63.8009C121.829 63.8764 121.821 63.956 121.827 64.035C121.84 64.1945 121.911 64.3421 122.025 64.4452C122.082 64.4962 122.147 64.5348 122.217 64.5588C122.288 64.5827 122.362 64.5916 122.435 64.5848C126.318 64.1868 130.229 64.2627 134.096 64.8109C133.406 66.0174 132.629 67.1642 131.773 68.2406C131.691 68.1242 131.571 68.0448 131.437 68.0181C127.343 67.2803 123.172 67.1552 119.046 67.6464C118.972 67.655 118.901 67.6791 118.836 67.7172C118.771 67.7554 118.714 67.8069 118.668 67.8689C118.621 67.9308 118.587 68.002 118.566 68.0782C118.545 68.1545 118.539 68.2344 118.547 68.3134C118.555 68.3924 118.577 68.4689 118.613 68.5386C118.648 68.6083 118.696 68.6698 118.754 68.7195C118.812 68.7693 118.878 68.8064 118.949 68.8287C119.02 68.8509 119.094 68.858 119.168 68.8494C123.141 68.3773 127.156 68.491 131.101 69.1874C130.212 70.1847 129.105 72.0926 127.854 72.2947C127.527 72.1046 115.064 69.2211 118.384 71.8929C121.257 72.1013 124.11 72.5693 126.91 73.292C125.622 74.4805 123.524 74.1497 122.253 75.2589C121.608 75.5416 121.191 76.3536 121.55 76.8576C120.318 76.6459 111.35 74.8126 111.293 76.4053C111.293 76.5648 111.352 76.7178 111.457 76.8306C111.562 76.9434 111.705 77.0068 111.853 77.0068C113.293 77.1788 122.628 76.9984 120.678 78.8702C120.193 79.6125 120.029 81.2834 121.144 81.3881C121.42 81.275 121.168 82.2025 121.448 82.5153C114.086 79.4785 106.171 78.3073 98.3193 79.0928C98.1709 79.1078 98.034 79.1855 97.9389 79.3089C97.8437 79.4323 97.7981 79.5913 97.8121 79.7508C97.826 79.9104 97.8984 80.0574 98.0133 80.1596C98.1282 80.2618 98.2761 80.3108 98.4246 80.2958C114.008 78.5695 129.169 85.3784 139.949 97.0955C140.058 97.0958 140.166 97.0616 140.257 96.9972C140.349 96.9328 140.421 96.8409 140.464 96.733C140.508 96.6251 140.521 96.5059 140.502 96.3901C140.483 96.2743 140.433 96.1669 140.358 96.0814C135.378 90.4224 129.328 85.9736 122.616 83.0338C122.903 82.8844 123.143 82.646 123.303 82.3493C123.311 82.5522 123.374 82.7482 123.483 82.9137C123.593 83.0793 123.744 83.2073 123.92 83.2823C124.096 83.3573 124.288 83.3762 124.473 83.3366C124.659 83.2969 124.829 83.2006 124.965 83.059C125.86 81.9634 126.872 80.9846 127.979 80.143C133.639 82.5315 138.745 86.2173 142.942 90.9434C142.992 91.0037 143.053 91.0525 143.12 91.0871C143.188 91.1216 143.262 91.1412 143.337 91.1446C143.412 91.148 143.487 91.1352 143.557 91.1069C143.627 91.0786 143.691 91.0354 143.746 90.9799C143.8 90.9244 143.844 90.8577 143.874 90.7838C143.904 90.7099 143.92 90.6303 143.92 90.5497C143.921 90.4691 143.907 90.3891 143.878 90.3146C143.85 90.2401 143.807 90.1724 143.754 90.1158C139.809 85.6793 135.078 82.1344 129.839 79.6895C132.544 79.458 135.191 78.7254 137.663 77.5241C142 79.8726 145.998 82.8824 149.533 86.4599C149.586 86.5168 149.649 86.5618 149.719 86.5921C149.788 86.6224 149.862 86.6374 149.937 86.6363C150.012 86.6351 150.086 86.6178 150.155 86.5854C150.223 86.553 150.285 86.5062 150.337 86.4476C150.388 86.3891 150.428 86.3201 150.454 86.2446C150.48 86.1692 150.492 86.0889 150.489 86.0085C150.486 85.9281 150.467 85.8492 150.435 85.7765C150.403 85.7038 150.357 85.6388 150.301 85.5853C146.907 82.1534 143.095 79.2312 138.97 76.8985C140.823 75.9851 142.601 74.9054 144.285 73.6709C148.485 75.8851 152.355 78.7602 155.765 82.2013C156.282 82.7451 157.072 81.8524 156.532 81.3255C153.187 77.955 149.412 75.1146 145.321 72.8902C146.655 71.8255 147.906 70.6446 149.061 69.3594C152.957 71.2256 156.63 73.5893 160 76.3993C160.059 76.4472 160.126 76.4823 160.197 76.5024C160.269 76.5225 160.343 76.5273 160.416 76.5165C160.489 76.5058 160.56 76.4796 160.624 76.4396C160.687 76.3995 160.743 76.3464 160.788 76.2832C160.832 76.22 160.865 76.148 160.884 76.0713C160.902 75.9945 160.907 75.9146 160.897 75.836C160.887 75.7574 160.863 75.6817 160.825 75.6133C160.788 75.5448 160.739 75.4849 160.68 75.4369C157.344 72.6585 153.72 70.3046 149.88 68.4223C150.949 67.139 151.915 65.7602 152.766 64.3009C159.504 66.5805 165.912 69.8629 171.803 74.0523C168.628 75.9422 154.446 88.2475 148.884 92.6036C146.614 94.3912 118.361 118.933 118.245 119.066V119.068ZM125.499 78.3999C124.434 77.66 122.777 80.7024 122.427 81.5C122.743 80.1609 123.447 78.9642 124.436 78.0823C124.545 77.9837 124.615 77.8451 124.632 77.6938C124.65 77.5425 124.614 77.3896 124.532 77.2653C124.45 77.141 124.327 77.0543 124.188 77.0225C124.05 76.9907 123.905 77.016 123.782 77.0934C124.088 76.8957 124.409 76.7275 124.742 76.5906C124.855 76.5437 124.95 76.459 125.015 76.3489C125.079 76.2389 125.108 76.1094 125.098 75.98C125.088 75.8506 125.04 75.7281 124.959 75.6308C124.879 75.5336 124.772 75.4668 124.654 75.4405C126.627 74.4649 128.237 76.5232 128.544 78.3963C126.953 79.2425 125.558 80.4584 124.459 81.9559C124.611 80.9524 124.987 80.0033 125.554 79.189C125.635 79.072 125.674 78.9271 125.664 78.7815C125.653 78.6358 125.593 78.4993 125.496 78.3975L125.499 78.3999ZM120.139 133.669L119.735 127.512C122.84 124.502 126.178 121.782 129.712 119.38C129.837 119.294 129.926 119.158 129.958 119.003C129.99 118.847 129.963 118.684 129.884 118.549C129.804 118.414 129.678 118.319 129.533 118.285C129.388 118.25 129.236 118.279 129.11 118.364C125.771 120.639 122.604 123.192 119.637 126L119.49 123.756L146.873 99.7433C146.93 99.6933 146.977 99.6317 147.012 99.5621C147.047 99.4925 147.068 99.4162 147.076 99.3375C147.083 99.2589 147.076 99.1795 147.055 99.1038C147.034 99.0281 146.999 98.9576 146.952 98.8964C146.906 98.8352 146.848 98.7844 146.783 98.747C146.719 98.7096 146.648 98.6862 146.574 98.6783C146.501 98.6703 146.427 98.678 146.357 98.7008C146.286 98.7235 146.221 98.761 146.164 98.811L119.394 122.29L119.242 119.962C133.634 108.002 134.276 105.63 159.429 85.518C162.391 83.0434 168.985 77.2715 172.173 75.1723C171.843 77.2202 171.672 79.294 171.662 81.3725L157.381 93.815C157.291 93.8933 157.226 93.9996 157.195 94.1191C157.164 94.2387 157.168 94.3658 157.206 94.4828C157.245 94.5999 157.316 94.7012 157.411 94.7729C157.505 94.8446 157.618 94.8831 157.734 94.8832C158.034 94.8832 156.96 95.7253 171.619 82.964C171.597 83.6545 171.575 84.2211 171.556 84.3222C170.491 85.7297 130.188 124.083 120.139 133.666V133.669ZM187.614 118.864L191.371 119.075C191.02 124.156 189.145 128.977 186.029 132.817C185.207 132.088 183.005 129.208 182.185 130.232C182.106 130.366 182.079 130.53 182.112 130.685C182.144 130.841 182.233 130.976 182.358 131.062C183.424 131.812 184.402 132.699 185.269 133.702C182.163 137.125 178.273 139.609 173.99 140.906L173.002 137.088C172.959 136.938 172.863 136.812 172.735 136.737C172.607 136.662 172.457 136.644 172.317 136.686C172.177 136.728 172.057 136.827 171.983 136.962C171.91 137.097 171.889 137.258 171.924 137.41L172.92 141.26C168.702 142.446 164.342 142.945 159.985 142.74L160.553 138.67C160.568 138.515 160.527 138.361 160.439 138.239C160.351 138.116 160.222 138.035 160.079 138.012C159.937 137.989 159.791 138.026 159.674 138.115C159.556 138.205 159.475 138.339 159.447 138.492L158.856 142.726C155.333 142.67 151.816 142.414 148.319 141.96C151.322 126.001 153.979 113.117 156.918 100.264C160.166 96.8513 163.24 94.1951 165.369 92.0369C165.649 92.6866 166.564 92.4772 167.106 92.689C166.972 93.6261 165.892 97.11 167.138 97.3145C167.286 97.3145 167.429 97.2511 167.534 97.1383C167.639 97.0255 167.698 96.8725 167.698 96.713C167.706 95.4294 167.879 94.1531 168.21 92.9199C171.5 93.6042 174.709 94.6774 177.779 96.1199L175.835 99.5652C175.797 99.6329 175.772 99.7079 175.761 99.786C175.749 99.8641 175.753 99.9438 175.77 100.021C175.788 100.097 175.819 100.17 175.863 100.233C175.907 100.297 175.961 100.351 176.024 100.392C176.087 100.433 176.157 100.46 176.23 100.472C176.303 100.484 176.377 100.48 176.448 100.461C176.52 100.442 176.587 100.409 176.646 100.362C176.705 100.315 176.756 100.256 176.794 100.188L178.799 96.6348C183.035 98.9301 186.151 101.613 188.304 105.484L185.466 107.007C185.398 107.041 185.337 107.089 185.287 107.148C185.236 107.208 185.198 107.278 185.173 107.354C185.148 107.43 185.138 107.511 185.142 107.591C185.147 107.671 185.167 107.75 185.2 107.822C185.234 107.894 185.281 107.958 185.338 108.01C185.395 108.063 185.461 108.102 185.532 108.126C185.604 108.151 185.679 108.159 185.754 108.152C185.829 108.144 185.901 108.121 185.967 108.082L188.857 106.532C190.601 110.011 191.478 113.915 191.406 117.865L187.674 117.655C187.525 117.646 187.379 117.702 187.268 117.809C187.157 117.916 187.09 118.066 187.082 118.226C187.074 118.386 187.126 118.543 187.226 118.662C187.326 118.781 187.465 118.853 187.614 118.861V118.864Z" fill="#004455"/>
</svg>
